<?xml version="1.0" encoding="iso-8859-1"?>
<!-- Generator: Adobe Illustrator 19.0.0, SVG Export Plug-In . SVG Version: 6.00 Build 0)  -->
<svg version="1.1" id="Layer_1" xmlns="http://www.w3.org/2000/svg" xmlns:xlink="http://www.w3.org/1999/xlink" x="0px" y="0px"
	 viewBox="0 0 512 512" style="enable-background:new 0 0 512 512;" xml:space="preserve">
<polygon style="fill:#C1C1C1;" points="512,182.454 500.918,171.373 339.984,321.299 363.64,330.814 "/>
<polygon style="fill:#DFDFDF;" points="489.837,160.291 341.477,308.651 345.651,326.64 500.918,171.373 "/>
<polygon style="fill:#D9000C;" points="189.725,482.566 219.131,511.971 345.651,385.451 307.112,346.913 "/>
<rect x="217.488" y="315.136" transform="matrix(-0.7071 -0.7071 0.7071 -0.7071 120.6754 859.1856)" style="fill:#E43138;" width="41.585" height="178.927"/>
<polygon style="fill:#C1C1C1;" points="372.5,70.863 346.508,96.855 318.493,87.267 196.911,183.388 87.238,318.523 96.825,346.538 
	70.834,372.53 104.064,405.76 154.367,355.457 141.35,317.034 317.005,141.38 355.428,154.396 405.731,104.094 "/>
<polygon style="fill:#8BCBF1;" points="336.543,376.343 372.856,340.03 352.558,319.733 307.112,346.913 "/>
<rect x="309.906" y="302.066" transform="matrix(0.7071 0.7071 -0.7071 0.7071 326.7208 -133.2923)" style="fill:#C7E5FF;" width="28.704" height="51.35"/>
<polygon style="fill:#DFDFDF;" points="318.493,87.267 308.906,59.252 334.897,33.26 301.666,0.029 251.364,50.332 264.38,88.755 
	88.726,264.409 50.303,251.393 0,301.696 33.231,334.927 59.222,308.935 87.238,318.522 87.238,318.523 "/>
<polygon style="fill:#0079CE;" points="305.164,367.127 355.974,417.936 378.136,395.774 327.327,344.964 307.112,346.913 "/>
<polygon style="fill:#E43138;" points="219.074,475.381 309.06,385.394 297.979,374.312 247.445,413.765 207.992,464.299 "/>
<rect x="275.164" y="294.714" transform="matrix(-0.7071 0.7071 -0.7071 -0.7071 730.2851 358.7879)" style="fill:#288FD9;" width="31.343" height="71.854"/>
<rect x="239.608" y="350.138" transform="matrix(0.7071 0.7071 -0.7071 0.7071 365.0537 -53.7782)" style="fill:#D9000C;" width="15.671" height="127.264"/>
<g>
</g>
<g>
</g>
<g>
</g>
<g>
</g>
<g>
</g>
<g>
</g>
<g>
</g>
<g>
</g>
<g>
</g>
<g>
</g>
<g>
</g>
<g>
</g>
<g>
</g>
<g>
</g>
<g>
</g>
</svg>
