<svg id="line" height="512" viewBox="0 0 64 64" width="512" xmlns="http://www.w3.org/2000/svg"><g fill="#c4a2fc"><path d="m59.006 26.5a3 3 0 0 0 -3-3h-36a3 3 0 0 0 -3 3v1h42z"/><path d="m62.9 56.053-3.276-6.553h-43.236l-3.277 6.553a1.164 1.164 0 0 0 -.1.539 5 5 0 0 0 4.995 4.908h40a5 5 0 0 0 4.994-4.908 1.158 1.158 0 0 0 -.1-.539zm-4.9 3.447h-40a3.006 3.006 0 0 1 -2.829-2h45.664a3.006 3.006 0 0 1 -2.829 2z"/><path d="m59.006 29.5h-42v18h42zm-13.5 14h-23a1 1 0 0 1 0-2h23a1 1 0 0 1 0 2zm0-8h-23a1 1 0 0 1 0-2h23a1 1 0 0 1 0 2zm9 9a1 1 0 0 1 -1 1h-4a1 1 0 0 1 -1-1v-4a1 1 0 0 1 1-1h4a1 1 0 0 1 1 1zm0-8a1 1 0 0 1 -1 1h-4a1 1 0 0 1 -1-1v-4a1 1 0 0 1 1-1h4a1 1 0 0 1 1 1z"/></g><path d="m50.706 45.792-4-4a1 1 0 0 0 -1.414 1.414l2.294 2.294h-5.586a7.008 7.008 0 0 1 -7-7v-7h7a9 9 0 1 0 -2.29-17.694 13.975 13.975 0 0 0 -27.372-.306h-2.338a9 9 0 0 0 0 18h7v7a7.008 7.008 0 0 1 -7 7h-5.586l2.293-2.293a1 1 0 0 0 -1.414-1.414l-4 4a1 1 0 0 0 0 1.416l4 4a1 1 0 1 0 1.414-1.414l-2.293-2.295h5.586a9.01 9.01 0 0 0 9-9v-7h6v17.586l-2.293-2.293a1 1 0 0 0 -1.414 1.414l4 4a1 1 0 0 0 1.416 0l4-4a1 1 0 0 0 -1.414-1.414l-2.295 2.293v-17.586h6v7a9.01 9.01 0 0 0 9 9h5.586l-2.293 2.293a1 1 0 0 0 1.414 1.414l4-4a1 1 0 0 0 -.001-1.415zm-40.706-16.292a7 7 0 0 1 0-14h3.169a1 1 0 0 0 .989-.847 11.982 11.982 0 0 1 23.664-.117 9 9 0 0 0 -4.822 7.964v2a1 1 0 0 0 2 0v-2a7.005 7.005 0 0 1 4.192-6.407c.024-.01.045-.023.069-.034a7 7 0 1 1 2.739 13.441z" fill="#161e68"/></svg>