<?xml version="1.0" encoding="UTF-8" standalone="no"?>
<svg
   xmlns:dc="http://purl.org/dc/elements/1.1/"
   xmlns:cc="http://creativecommons.org/ns#"
   xmlns:rdf="http://www.w3.org/1999/02/22-rdf-syntax-ns#"
   xmlns:svg="http://www.w3.org/2000/svg"
   xmlns="http://www.w3.org/2000/svg"
   xmlns:sodipodi="http://sodipodi.sourceforge.net/DTD/sodipodi-0.dtd"
   xmlns:inkscape="http://www.inkscape.org/namespaces/inkscape"
   width="200"
   height="50"
   viewBox="0 0 160 40"
   id="svg2"
   version="1.1"
   inkscape:version="0.91 r13725"
   sodipodi:docname="db2.svg">
  <metadata
     id="metadata40">
    <rdf:RDF>
      <cc:Work
         rdf:about="">
        <dc:format>image/svg+xml</dc:format>
        <dc:type
           rdf:resource="http://purl.org/dc/dcmitype/StillImage" />
        <dc:title></dc:title>
      </cc:Work>
    </rdf:RDF>
  </metadata>
  <defs
     id="defs38">
    <clipPath
       id="clp82">
      <path
         id="path1826"
         d="M 1001.6,870.49 L 1036.3,870.49 L 1036.3,857.41 L 1001.6,857.41 L 1001.6,870.49 z " />
    </clipPath>
    <clipPath
       id="clp83">
      <path
         id="path1835"
         d="M 1001.6,870.49 L 1036.3,870.49 L 1036.3,857.41 L 1001.6,857.41 L 1001.6,870.49 z " />
    </clipPath>
    <clipPath
       id="clp84">
      <path
         id="path1844"
         d="M 1001.6,870.49 L 1036.3,870.49 L 1036.3,857.41 L 1001.6,857.41 L 1001.6,870.49 z " />
    </clipPath>
    <clipPath
       id="clp81">
      <path
         id="path1800"
         d="M 1000.9,934.34 L 1038.6,934.34 L 1038.6,922.24 L 1000.9,922.24 L 1000.9,934.34 z " />
    </clipPath>
    <clipPath
       id="clipPath116030">
      <path
         id="path116032"
         d="M 1001.6,870.49 L 1036.3,870.49 L 1036.3,857.41 L 1001.6,857.41 L 1001.6,870.49 z " />
    </clipPath>
    <clipPath
       id="clipPath116038">
      <path
         id="path116040"
         d="M 1001.6,870.49 L 1036.3,870.49 L 1036.3,857.41 L 1001.6,857.41 L 1001.6,870.49 z " />
    </clipPath>
    <clipPath
       id="clipPath116046">
      <path
         id="path116048"
         d="M 1001.6,870.49 L 1036.3,870.49 L 1036.3,857.41 L 1001.6,857.41 L 1001.6,870.49 z " />
    </clipPath>
    <clipPath
       id="clipPath4594"
       clipPathUnits="userSpaceOnUse">
      <path
         inkscape:connector-curvature="0"
         id="path4596"
         d="M 0,612 792,612 792,0 0,0 0,612 Z" />
    </clipPath>
    <clipPath
       id="clipPath4729"
       clipPathUnits="userSpaceOnUse">
      <path
         inkscape:connector-curvature="0"
         id="path4731"
         d="m 0,267.113 1194.562,0 L 1194.562,0 0,0 0,267.113 Z" />
    </clipPath>
  </defs>
  <sodipodi:namedview
     pagecolor="#ffffff"
     bordercolor="#666666"
     borderopacity="1"
     objecttolerance="10"
     gridtolerance="10"
     guidetolerance="10"
     inkscape:pageopacity="0"
     inkscape:pageshadow="2"
     inkscape:window-width="1920"
     inkscape:window-height="986"
     id="namedview36"
     showgrid="false"
     units="px"
     inkscape:zoom="3.2081841"
     inkscape:cx="82.760607"
     inkscape:cy="41.368849"
     inkscape:window-x="-11"
     inkscape:window-y="-11"
     inkscape:window-maximized="1"
     inkscape:current-layer="svg2"
     showguides="true" />
  <style
     id="style4237"
     type="text/css">
	.st0{fill:#19486F;}
	.st1{fill:#2E73B8;}
	.st2{fill:#5294CF;}
	.st3{fill:#205B99;}
	.st4{fill:#99BCE3;}
	.st5{display:none;}
	.st6{fill:#FFFFFF;}
	.st7{enable-background:new    ;}
</style>
  <path
     id="path5235"
     d="m 24.8,8.013338 0,1.586377 11.283145,0 0,-1.586377 -11.283145,0 z m 12.88176,0 0,1.586377 16.078981,0 c 0,0 -1.642379,-1.586377 -3.817654,-1.586377 l -12.261327,0 z m 19.233193,0 0,1.586377 9.727548,0 -0.577407,-1.586377 -9.150141,0 z m 16.701675,0 -0.577407,1.586377 9.639244,0 0,-1.586377 -9.061837,0 z M 24.8,11.098458 l 0,1.586375 11.283145,0 0,-1.586375 -11.283145,0 z m 12.88176,0.0022 0,1.584129 17.944787,0 c 0,10e-7 -0.209586,-1.220943 -0.575139,-1.584129 l -17.369648,0 z m 19.233193,0 0,1.584129 10.794042,0 -0.534381,-1.584129 -10.259661,0 z m 15.546868,0 -0.534381,1.584129 10.751025,0 0,-1.584129 -10.216644,0 z m -44.419305,3.082872 0,1.588623 4.886417,0 0,-1.588623 -4.886417,0 z m 12.88176,0 0,1.588623 4.88641,0 0,-1.588623 -4.88641,0 z m 9.639236,0 0,1.588623 4.886418,0 c 0,0 0.310216,-0.838954 0.310216,-1.588623 l -5.196634,0 z m 9.593956,0 0,1.588623 8.663315,0 -0.577406,-1.588623 -8.085909,0 z m 11.240119,0 -0.579667,1.588623 8.706333,0 0,-1.588623 -8.126666,0 z m -43.355071,3.087367 0,1.586376 4.886417,0 0,-1.586376 -4.886417,0 z m 12.88176,0 0,1.586376 12.480969,0 c 0,0 1.044055,-0.813985 1.376712,-1.586376 l -13.857681,0 z m 19.233192,0 0,1.586376 4.886418,0 0,-0.883068 0.310209,0.883068 8.950888,0 0.332853,-0.883068 0,0.883068 4.886417,0 0,-1.586376 -9.172784,0 -0.486835,1.343701 -0.489094,-1.343701 -9.218072,0 z m -32.114952,3.08512 0,1.586376 4.886417,0 0,-1.586376 -4.886417,0 z m 12.88176,0 0,1.586376 13.857681,0 c -0.33273,-0.769839 -1.376712,-1.586342 -1.376712,-1.586342 l -12.480969,0 z m 19.233192,0 0,1.586376 4.886418,0 0,-1.586376 -4.886418,0 z m 5.774035,0 0.590985,1.586376 6.711465,0 0.561554,-1.586376 -7.864004,0 z m 8.706333,0 0,1.586376 4.886417,0 0,-1.586376 -4.886417,0 z m -46.59532,3.085121 0,1.586375 4.886417,0 0,-1.586375 -4.886417,0 z m 12.88176,0 0,1.586375 4.88641,0 0,-1.586375 -4.88641,0 z m 9.639236,0 0,1.586375 5.196634,0 c 0,-0.74866 -0.310216,-1.586375 -0.310216,-1.586375 l -4.886418,0 z m 9.593956,0 0,1.586375 4.886418,0 0,-1.586375 -4.886418,0 z m 6.883555,0 0.572871,1.586375 4.49922,0 0.577401,-1.586375 -5.649492,0 z m 7.596813,0 0,1.586375 4.886417,0 0,-1.586375 -4.886417,0 z m -49.749531,3.085118 0,1.588623 11.283145,0 0,-1.588623 -11.283145,0 z m 12.793455,0 0,1.588623 17.369648,0 c 0.365553,-0.36376 0.575139,-1.588623 0.575139,-1.588623 l -17.944787,0 z m 19.321498,0 0,1.588623 8.040628,0 0,-1.588623 -8.040628,0 z m 11.149546,0 0.588725,1.588623 2.289238,0 0.552495,-1.588623 -3.430458,0 z m 6.485032,0 0,1.588623 8.128934,0 0,-1.588623 -8.128934,0 z m -49.749531,3.087368 0,1.586376 11.283145,0 0,-1.586376 -11.283145,0 z m 12.793455,0 0,1.584129 12.261327,0 c 2.175275,0 3.817654,-1.584129 3.817654,-1.584129 l -16.078981,0 z m 19.321498,0 0,1.586376 8.040628,0 0,-1.586376 -8.040628,0 z m 12.265862,0 0.566082,1.581881 0.09736,0.0022 0.575139,-1.58413 -1.238583,0 z m 5.368716,0 0,1.586376 8.128934,0 0,-1.586376 -8.128934,0 z"
     inkscape:connector-curvature="0"
     style="fill:#1f70c1" />
  <text
     xml:space="preserve"
     style="font-style:normal;font-weight:normal;font-size:23.18670845px;line-height:125%;font-family:sans-serif;letter-spacing:0px;word-spacing:0px;fill:#000000;fill-opacity:1;stroke:none;stroke-width:1px;stroke-linecap:butt;stroke-linejoin:miter;stroke-opacity:1"
     x="91.212463"
     y="27.911104"
     id="text5244"
     sodipodi:linespacing="125%"><tspan
       sodipodi:role="line"
       id="tspan5246"
       x="91.212463"
       y="27.911104"
       style="font-style:normal;font-variant:normal;font-weight:normal;font-stretch:normal;font-size:23.18670845px;line-height:125%;font-family:Arial;-inkscape-font-specification:'Arial, Normal';text-align:start;writing-mode:lr-tb;text-anchor:start">DB2</tspan></text>
</svg>
