<?xml version="1.0" encoding="UTF-8" standalone="no"?>
<svg
   xmlns:dc="http://purl.org/dc/elements/1.1/"
   xmlns:cc="http://creativecommons.org/ns#"
   xmlns:rdf="http://www.w3.org/1999/02/22-rdf-syntax-ns#"
   xmlns:svg="http://www.w3.org/2000/svg"
   xmlns="http://www.w3.org/2000/svg"
   xmlns:sodipodi="http://sodipodi.sourceforge.net/DTD/sodipodi-0.dtd"
   xmlns:inkscape="http://www.inkscape.org/namespaces/inkscape"
   width="200"
   height="50"
   viewBox="0 0 160 40"
   version="1.1"
   id="svg2"
   inkscape:version="0.91 r13725"
   sodipodi:docname="Microsoft_Excel_2013_logo.svg">
  <metadata
     id="metadata126">
    <rdf:RDF>
      <cc:Work
         rdf:about="">
        <dc:format>image/svg+xml</dc:format>
        <dc:type
           rdf:resource="http://purl.org/dc/dcmitype/StillImage" />
        <dc:title></dc:title>
      </cc:Work>
    </rdf:RDF>
  </metadata>
  <defs
     id="defs124" />
  <sodipodi:namedview
     pagecolor="#ffffff"
     bordercolor="#666666"
     borderopacity="1"
     objecttolerance="10"
     gridtolerance="10"
     guidetolerance="10"
     inkscape:pageopacity="0"
     inkscape:pageshadow="2"
     inkscape:window-width="1366"
     inkscape:window-height="705"
     id="namedview122"
     showgrid="false"
     inkscape:zoom="2.1811966"
     inkscape:cx="147.68167"
     inkscape:cy="27.265804"
     inkscape:window-x="-8"
     inkscape:window-y="-8"
     inkscape:window-maximized="1"
     inkscape:current-layer="svg2"
     fit-margin-top="0"
     fit-margin-left="0"
     fit-margin-right="0"
     fit-margin-bottom="0" />
  <path
     d="m 23.700837,1.6 2.541768,0 c 0,1.1425116 0,2.2807442 0,3.4232558 4.283348,0 8.566697,0.00856 12.850046,-0.012837 0.723163,0.029954 1.51907,-0.021395 2.148093,0.4107907 0.440744,0.6333023 0.389396,1.4377674 0.419349,2.1652093 -0.0214,7.4284652 -0.01284,14.8526512 -0.0086,22.2768372 -0.0214,1.245209 0.115535,2.516093 -0.145488,3.744186 -0.171163,0.890046 -1.240931,0.911442 -1.955535,0.941395 -4.433117,0.01284 -8.870512,-0.0086 -13.307907,0 0,1.283721 0,2.567442 0,3.851163 l -2.657303,0 C 17.064,37.214698 10.529861,36.119256 4,34.976744 4,24.993674 4,15.010605 4,5.0275349 10.568372,3.8850233 17.136744,2.7596279 23.700837,1.6 Z"
     id="path10"
     inkscape:connector-curvature="0"
     style="fill:#207245" />
  <path
     d="m 26.242605,6.3069767 c 4.706976,0 9.413953,0 14.12093,0 0,8.9860463 0,17.9720933 0,26.9581393 -4.706977,0 -9.413954,0 -14.12093,0 0,-0.855814 0,-1.711628 0,-2.567442 1.142511,0 2.280744,0 3.423255,0 0,-0.997023 0,-1.998325 0,-2.995348 -1.142511,0 -2.280744,0 -3.423255,0 0,-0.569117 0,-1.142512 0,-1.711628 1.142511,0 2.280744,0 3.423255,0 0,-0.997024 0,-1.998326 0,-2.995349 -1.142511,0 -2.280744,0 -3.423255,0 0,-0.569116 0,-1.142512 0,-1.711628 1.142511,0 2.280744,0 3.423255,0 0,-0.997023 0,-1.998326 0,-2.995349 -1.142511,0 -2.280744,0 -3.423255,0 0,-0.569116 0,-1.142512 0,-1.711628 1.142511,0 2.280744,0 3.423255,0 0,-0.997023 0,-1.998325 0,-2.995349 -1.142511,0 -2.280744,0 -3.423255,0 0,-0.569116 0,-1.142511 0,-1.711628 1.142511,0 2.280744,0 3.423255,0 0,-0.997023 0,-1.998325 0,-2.995348 -1.142511,0 -2.280744,0 -3.423255,0 0,-0.8558143 0,-1.7116283 0,-2.5674423 z"
     id="path48"
     inkscape:connector-curvature="0"
     style="fill:#ffffff" />
  <path
     d="m 31.377488,8.874419 c 1.998326,0 3.992372,0 5.990698,0 0,0.997023 0,1.998325 0,2.995348 -1.998326,0 -3.992372,0 -5.990698,0 0,-0.997023 0,-1.998325 0,-2.995348 z"
     id="path58"
     inkscape:connector-curvature="0"
     style="fill:#207245" />
  <path
     d="m 16.674605,12.883907 c 0.967069,-0.06846 1.938418,-0.128372 2.909767,-0.175442 -1.142512,2.340651 -2.289302,4.681302 -3.453209,7.013395 1.176744,2.39628 2.379163,4.775442 3.560186,7.171721 -1.031256,-0.05991 -2.058233,-0.124093 -3.089489,-0.196837 -0.727441,-1.784372 -1.613209,-3.508837 -2.135255,-5.374511 -0.581954,1.737302 -1.412093,3.376186 -2.079628,5.079255 -0.937116,-0.01284 -1.874233,-0.05135 -2.8113491,-0.08986 1.0997211,-2.152372 2.1609301,-4.321861 3.2948841,-6.461395 -0.962791,-2.203721 -2.019721,-4.364652 -3.0124655,-6.555535 0.9413955,-0.05563 1.8827905,-0.111256 2.8241865,-0.162605 0.637581,1.673116 1.335069,3.324837 1.861395,5.040744 0.564837,-1.818604 1.407814,-3.530232 2.130977,-5.28893 z"
     id="path72"
     inkscape:connector-curvature="0"
     style="fill:#ffffff" />
  <path
     d="m 31.377488,13.581395 c 1.998326,0 3.992372,0 5.990698,0 0,0.997024 0,1.998326 0,2.995349 -1.998326,0 -3.992372,0 -5.990698,0 0,-0.997023 0,-1.998325 0,-2.995349 z"
     id="path90"
     inkscape:connector-curvature="0"
     style="fill:#207245" />
  <path
     d="m 31.377488,18.288372 c 1.998326,0 3.992372,0 5.990698,0 0,0.997023 0,1.998326 0,2.995349 -1.998326,0 -3.992372,0 -5.990698,0 0,-0.997023 0,-1.998326 0,-2.995349 z"
     id="path108"
     inkscape:connector-curvature="0"
     style="fill:#207245" />
  <path
     d="m 31.377488,22.995349 c 1.998326,0 3.992372,0 5.990698,0 0,0.997023 0,1.998325 0,2.995349 -1.998326,0 -3.992372,0 -5.990698,0 0,-0.997024 0,-1.998326 0,-2.995349 z"
     id="path114"
     inkscape:connector-curvature="0"
     style="fill:#207245" />
  <path
     d="m 31.377488,27.702326 c 1.998326,0 3.992372,0 5.990698,0 0,0.997023 0,1.998325 0,2.995348 -1.998326,0 -3.992372,0 -5.990698,0 0,-0.997023 0,-1.998325 0,-2.995348 z"
     id="path120"
     inkscape:connector-curvature="0"
     style="fill:#207245" />
  <text
     xml:space="preserve"
     style="font-style:normal;font-weight:normal;font-size:32.49274826px;line-height:125%;font-family:sans-serif;letter-spacing:0px;word-spacing:0px;fill:#000000;fill-opacity:1;stroke:none;stroke-width:1px;stroke-linecap:butt;stroke-linejoin:miter;stroke-opacity:1"
     x="50.611759"
     y="25.384823"
     id="text4140"
     sodipodi:linespacing="125%"><tspan
       sodipodi:role="line"
       id="tspan4142"
       x="50.611759"
       y="25.384823"><tspan
         style="font-size:14.21557808px"
         id="tspan4144">Microsoft Excel</tspan></tspan></text>
</svg>
