<?xml version="1.0" encoding="UTF-8" standalone="no"?>
<svg
   xmlns:dc="http://purl.org/dc/elements/1.1/"
   xmlns:cc="http://creativecommons.org/ns#"
   xmlns:rdf="http://www.w3.org/1999/02/22-rdf-syntax-ns#"
   xmlns:svg="http://www.w3.org/2000/svg"
   xmlns="http://www.w3.org/2000/svg"
   xmlns:sodipodi="http://sodipodi.sourceforge.net/DTD/sodipodi-0.dtd"
   xmlns:inkscape="http://www.inkscape.org/namespaces/inkscape"
   width="200"
   height="50"
   viewBox="0 0 160 40"
   id="svg2"
   version="1.1"
   inkscape:version="0.91 r13725"
   sodipodi:docname="facebook.svg">
  <metadata
     id="metadata40">
    <rdf:RDF>
      <cc:Work
         rdf:about="">
        <dc:format>image/svg+xml</dc:format>
        <dc:type
           rdf:resource="http://purl.org/dc/dcmitype/StillImage" />
        <dc:title></dc:title>
      </cc:Work>
    </rdf:RDF>
  </metadata>
  <defs
     id="defs38">
    <clipPath
       id="clp82">
      <path
         id="path1826"
         d="M 1001.6,870.49 L 1036.3,870.49 L 1036.3,857.41 L 1001.6,857.41 L 1001.6,870.49 z " />
    </clipPath>
    <clipPath
       id="clp83">
      <path
         id="path1835"
         d="M 1001.6,870.49 L 1036.3,870.49 L 1036.3,857.41 L 1001.6,857.41 L 1001.6,870.49 z " />
    </clipPath>
    <clipPath
       id="clp84">
      <path
         id="path1844"
         d="M 1001.6,870.49 L 1036.3,870.49 L 1036.3,857.41 L 1001.6,857.41 L 1001.6,870.49 z " />
    </clipPath>
    <clipPath
       id="clp81">
      <path
         id="path1800"
         d="M 1000.9,934.34 L 1038.6,934.34 L 1038.6,922.24 L 1000.9,922.24 L 1000.9,934.34 z " />
    </clipPath>
    <clipPath
       id="clipPath116030">
      <path
         id="path116032"
         d="M 1001.6,870.49 L 1036.3,870.49 L 1036.3,857.41 L 1001.6,857.41 L 1001.6,870.49 z " />
    </clipPath>
    <clipPath
       id="clipPath116038">
      <path
         id="path116040"
         d="M 1001.6,870.49 L 1036.3,870.49 L 1036.3,857.41 L 1001.6,857.41 L 1001.6,870.49 z " />
    </clipPath>
    <clipPath
       id="clipPath116046">
      <path
         id="path116048"
         d="M 1001.6,870.49 L 1036.3,870.49 L 1036.3,857.41 L 1001.6,857.41 L 1001.6,870.49 z " />
    </clipPath>
    <clipPath
       id="clipPath4594"
       clipPathUnits="userSpaceOnUse">
      <path
         inkscape:connector-curvature="0"
         id="path4596"
         d="M 0,612 792,612 792,0 0,0 0,612 Z" />
    </clipPath>
  </defs>
  <sodipodi:namedview
     pagecolor="#ffffff"
     bordercolor="#666666"
     borderopacity="1"
     objecttolerance="10"
     gridtolerance="10"
     guidetolerance="10"
     inkscape:pageopacity="0"
     inkscape:pageshadow="2"
     inkscape:window-width="1920"
     inkscape:window-height="986"
     id="namedview36"
     showgrid="false"
     units="px"
     inkscape:zoom="1.6040921"
     inkscape:cx="60.430634"
     inkscape:cy="-125.72008"
     inkscape:window-x="-11"
     inkscape:window-y="-11"
     inkscape:window-maximized="1"
     inkscape:current-layer="svg2"
     showguides="true" />
  <style
     id="style4237"
     type="text/css">
	.st0{fill:#19486F;}
	.st1{fill:#2E73B8;}
	.st2{fill:#5294CF;}
	.st3{fill:#205B99;}
	.st4{fill:#99BCE3;}
	.st5{display:none;}
	.st6{fill:#FFFFFF;}
	.st7{enable-background:new    ;}
</style>
  <g
     id="g4624"
     transform="matrix(0.31832831,0,0,0.31832831,69.170119,-20.348832)">
    <path
       inkscape:connector-curvature="0"
       id="path4598"
       style="fill:#155da1;fill-opacity:1;fill-rule:nonzero;stroke:none"
       d="m -106.7141,73.976556 281.13728,0 0,105.551404 -281.13728,0" />
    <path
       inkscape:connector-curvature="0"
       id="path4600"
       style="fill:#ffffff;fill-opacity:1;fill-rule:nonzero;stroke:none"
       d="m 105.12804,126.29576 c -3.377,0 -4.549,1.843 -4.549,4.136 l 0,8.379 c 0,2.301 1.172,4.149 4.549,4.149 3.373,0 4.566,-1.848 4.566,-4.149 l 0,-8.379 c 0,-2.293 -1.193,-4.136 -4.566,-4.136 m 47.193,24.492 -10.779,0 -9.113,-15.192 0,15.192 -9.944,0 0,-45.585 9.944,-1.655 0,29.345 9.113,-14.427 10.779,0 -9.951,15.744 9.951,16.578 z m -32.685,-12.938 c 0,6.754 -2.795,13.305 -14.473,13.305 -11.689,0 -14.535,-6.551 -14.535,-13.305 l 0,-6.521 c 0,-6.756 2.846,-13.308 14.535,-13.308 11.678,0 14.473,6.552 14.473,13.308 l 0,6.521 z m -31.844,0 c 0,6.754 -2.793,13.305 -14.475,13.305 -11.689,0 -14.533,-6.551 -14.533,-13.305 l 0,-6.521 c 0,-6.756 2.844,-13.308 14.533,-13.308 11.682,0 14.475,6.552 14.475,13.308 l 0,6.521 z m -31.869,-0.172 c 0,7.83 -2.24,13.541 -15.815,13.541 -4.898,0 -7.777,-0.431 -13.187,-1.263 l 0,-44.753 9.941,-1.655 0,15.653 c 2.149,-0.798 4.93,-1.202 7.461,-1.202 9.945,0 11.6,4.453 11.6,11.605 l 0,8.074 z m -32.328,-0.152 -18.236,0 0,0.668 c 0,3.781 1.348,4.766 5.804,4.766 4.008,0 6.452,-0.196 11.6,-1.082 l 0,8.078 c -4.964,1.013 -7.55,1.279 -12.424,1.279 -10.678,0 -14.924,-5.607 -14.924,-13.709 l 0,-6.635 c 0,-7.086 3.152,-12.892 14.092,-12.892 10.942,0 14.088,5.738 14.088,12.892 l 0,6.635 z m -31.121,-10.168 c -5.159,-0.883 -6.639,-1.078 -9.121,-1.078 -4.458,0 -5.804,0.984 -5.804,4.762 l 0,7.152 c 0,3.781 1.346,4.766 5.804,4.766 2.482,0 3.962,-0.196 9.121,-1.082 l 0,8.078 c -4.519,1.013 -7.461,1.279 -9.949,1.279 -10.677,0 -14.92,-5.607 -14.92,-13.709 l 0,-5.803 c 0,-8.107 4.243,-13.724 14.92,-13.724 2.488,0 5.43,0.268 9.949,1.282 l 0,8.077 z m -28.185,23.492 -8.288,0 -0.358,-2.093 c -3.786,2.093 -7.164,2.433 -9.39,2.433 -6.08,0 -9.316,-4.055 -9.316,-9.664 0,-6.615 3.776,-8.977 10.53,-8.977 l 6.874,0 0,-1.429 c 0,-3.379 -0.388,-4.369 -5.588,-4.369 l -8.504,0 0.832,-8.285 9.294,0 c 11.412,0 13.914,3.601 13.914,12.72 l 0,19.664 z m -33.988,-0.062 -9.944,0 0,-24.037 -4.97,0 0,-8.285 4.97,0 0,-4.973 c 0,-6.758 2.806,-10.777 10.776,-10.777 l 6.636,0 0,8.285 -4.146,0 c -3.104,0 -3.31,1.158 -3.31,3.318 l -0.012,4.147 7.516,0 -0.88,8.285 -6.636,0 0,24.037 z m 142.983,-24.492 c -3.383,0 -4.555,1.843 -4.555,4.136 l 0,8.379 c 0,2.301 1.172,4.149 4.555,4.149 3.373,0 4.555,-1.848 4.555,-4.149 l 0,-8.379 c 0,-2.293 -1.182,-4.136 -4.555,-4.136 m -126.403,15.101 c 0,1.813 0.856,2.754 2.748,2.754 2.03,0 3.23,-0.66 4.712,-1.34 l 0,-3.629 -4.438,0 c -2.1,0 -3.022,0.389 -3.022,2.215 m 62.626,-15.937 c -3.378,0 -4.148,1.851 -4.148,4.144 l 0,1.287 8.292,0 0,-1.287 c 0,-2.293 -0.77,-4.144 -4.144,-4.144 m 32.328,0.836 c -2.029,0 -3.49,0.664 -4.973,1.339 l 0,15.309 c 1.422,0.139 2.233,0.139 3.582,0.139 4.869,0 5.535,-2.229 5.535,-5.336 l 0,-7.315 c 0,-2.293 -0.761,-4.136 -4.144,-4.136" />
    <path
       inkscape:connector-curvature="0"
       id="path4602"
       style="fill:#ffffff;fill-opacity:1;fill-rule:nonzero;stroke:none"
       d="m 157.40904,148.07676 0.397,0 c 0.447,0 0.83,-0.164 0.83,-0.586 0,-0.301 -0.219,-0.6 -0.83,-0.6 -0.178,0 -0.303,0.014 -0.397,0.028 l 0,1.158 z m 0,1.894 -0.543,0 0,-3.422 c 0.285,-0.041 0.557,-0.08 0.965,-0.08 0.519,0 0.859,0.108 1.064,0.258 0.205,0.151 0.311,0.381 0.311,0.709 0,0.449 -0.297,0.721 -0.664,0.832 l 0,0.028 c 0.299,0.054 0.504,0.324 0.57,0.828 0.082,0.533 0.164,0.738 0.219,0.847 l -0.572,0 c -0.082,-0.109 -0.166,-0.423 -0.233,-0.871 -0.082,-0.437 -0.299,-0.601 -0.738,-0.601 l -0.379,0 0,1.472 z m 0.572,-4.375 c -1.345,0 -2.451,1.159 -2.451,2.59 0,1.457 1.106,2.602 2.467,2.602 1.361,0.013 2.451,-1.145 2.451,-2.59 0,-1.443 -1.09,-2.602 -2.451,-2.602 l -0.016,0 z m 0.016,-0.476 c 1.674,0 3.008,1.363 3.008,3.066 0,1.729 -1.334,3.078 -3.024,3.078 -1.673,0 -3.037,-1.349 -3.037,-3.078 0,-1.703 1.364,-3.066 3.037,-3.066 l 0.016,0 z" />
  </g>
</svg>
