<?xml version="1.0" encoding="UTF-8" standalone="no"?>
<!-- Created with Inkscape (http://www.inkscape.org/) -->

<svg
   xmlns:dc="http://purl.org/dc/elements/1.1/"
   xmlns:cc="http://creativecommons.org/ns#"
   xmlns:rdf="http://www.w3.org/1999/02/22-rdf-syntax-ns#"
   xmlns:svg="http://www.w3.org/2000/svg"
   xmlns="http://www.w3.org/2000/svg"
   xmlns:sodipodi="http://sodipodi.sourceforge.net/DTD/sodipodi-0.dtd"
   xmlns:inkscape="http://www.inkscape.org/namespaces/inkscape"
   width="200"
   height="50"
   viewBox="0 0 199.99999 49.999997"
   id="svg2"
   version="1.1"
   inkscape:version="0.91 r13725"
   sodipodi:docname="Google spreadsheet logo.svg">
  <defs
     id="defs4" />
  <sodipodi:namedview
     id="base"
     pagecolor="#ffffff"
     bordercolor="#666666"
     borderopacity="1.0"
     inkscape:pageopacity="0.0"
     inkscape:pageshadow="2"
     inkscape:zoom="3.0510179"
     inkscape:cx="92.491787"
     inkscape:cy="30.155816"
     inkscape:document-units="px"
     inkscape:current-layer="layer1"
     showgrid="false"
     inkscape:window-width="1366"
     inkscape:window-height="705"
     inkscape:window-x="-8"
     inkscape:window-y="-8"
     inkscape:window-maximized="1"
     units="px" />
  <metadata
     id="metadata7">
    <rdf:RDF>
      <cc:Work
         rdf:about="">
        <dc:format>image/svg+xml</dc:format>
        <dc:type
           rdf:resource="http://purl.org/dc/dcmitype/StillImage" />
        <dc:title />
      </cc:Work>
    </rdf:RDF>
  </metadata>
  <g
     inkscape:label="Layer 1"
     inkscape:groupmode="layer"
     id="layer1"
     transform="translate(0,-1002.3622)">
    <g
       id="g4145"
       transform="translate(17.10371,0)">
      <g
         transform="matrix(0.13496307,0,0,0.13496307,-43.046215,1000.1045)"
         id="g4149">
        <path
           sodipodi:nodetypes="csscsscccccccsssscscssssscccccccccccccccccccccccccccccccccccccccccccccccccccccc"
           inkscape:connector-curvature="0"
           id="path4159"
           d="m 432.60099,367.83677 c -6.67413,-2.39666 -13.163,-8.70568 -15.56969,-15.13814 -1.4688,-3.9257 -1.46933,-3.98847 -1.28616,-152.7352 l 0.18324,-148.807878 1.63771,-3.324461 c 2.46666,-5.007215 6.65939,-9.335127 11.6813,-12.057945 l 4.50711,-2.443695 75.22621,0 75.22621,0 0.35652,47.417429 0.35653,47.41743 47.25879,0.18336 47.2588,0.18335 0.69197,1.82004 c 0.44354,1.16658 0.52891,40.782 0.23779,110.33847 -0.43888,104.86028 -0.50062,108.64454 -1.83147,112.25953 -1.73085,4.70151 -7.0729,10.62492 -12.08681,13.40222 l -3.80721,2.10887 -113.73062,0.15147 c -91.77816,0.12223 -114.22854,-0.0273 -116.31022,-0.77485 z m 201.73297,-66.18885 c 1.2397,-1.23969 1.2397,-120.40561 0,-121.64531 -1.24251,-1.24251 -171.02908,-1.24251 -172.27159,0 -1.2397,1.2397 -1.2397,120.40562 0,121.64531 1.24251,1.24251 171.02908,1.24251 172.27159,0 z m -159.57939,-24.10088 0,-11.40871 23.88699,0 23.887,0 0,11.40871 0,11.4087 -23.887,0 -23.88699,0 z m 61.32184,0 0,-11.40871 42.78268,0 42.78268,0 0,11.40871 0,11.4087 -42.78268,0 -42.78268,0 z m -61.32184,-36.72177 0,-11.76523 23.88699,0 23.887,0 0,11.76523 0,11.76522 -23.887,0 -23.88699,0 z m 61.32184,0 0,-11.76523 42.78268,0 42.78268,0 0,11.76523 0,11.76522 -42.78268,0 -42.78268,0 z m -61.32184,-36.72177 0,-11.40871 23.88699,0 23.887,0 0,11.40871 0,11.4087 -23.887,0 -23.88699,0 z m 61.32184,0 0,-11.40871 42.78268,0 42.78268,0 0,11.40871 0,11.4087 -42.78268,0 -42.78268,0 z"
           style="fill:#3a80f5" />
        <path
           sodipodi:nodetypes="csscsscccccccsssscscssssscccccccccccccccccccccccccccccccccccccccccccccccccccccc"
           inkscape:connector-curvature="0"
           id="path4157"
           d="m 432.60099,367.83677 c -6.67413,-2.39666 -13.163,-8.70568 -15.56969,-15.13814 -1.4688,-3.9257 -1.46933,-3.98847 -1.28616,-152.7352 l 0.18324,-148.807878 1.63771,-3.324461 c 2.46666,-5.007215 6.65939,-9.335127 11.6813,-12.057945 l 4.50711,-2.443695 75.22621,0 75.22621,0 0.35652,47.417429 0.35653,47.41743 47.25879,0.18336 47.2588,0.18335 0.69197,1.82004 c 0.44354,1.16658 0.52891,40.782 0.23779,110.33847 -0.43888,104.86028 -0.50062,108.64454 -1.83147,112.25953 -1.73085,4.70151 -7.0729,10.62492 -12.08681,13.40222 l -3.80721,2.10887 -113.73062,0.15147 c -91.77816,0.12223 -114.22854,-0.0273 -116.31022,-0.77485 z m 201.73297,-66.18885 c 1.2397,-1.23969 1.2397,-120.40561 0,-121.64531 -1.24251,-1.24251 -171.02908,-1.24251 -172.27159,0 -1.2397,1.2397 -1.2397,120.40562 0,121.64531 1.24251,1.24251 171.02908,1.24251 172.27159,0 z m -159.57939,-24.10088 0,-11.40871 23.88699,0 23.887,0 0,11.40871 0,11.4087 -23.887,0 -23.88699,0 z m 61.32184,0 0,-11.40871 42.78268,0 42.78268,0 0,11.40871 0,11.4087 -42.78268,0 -42.78268,0 z m -61.32184,-36.72177 0,-11.76523 23.88699,0 23.887,0 0,11.76523 0,11.76522 -23.887,0 -23.88699,0 z m 61.32184,0 0,-11.76523 42.78268,0 42.78268,0 0,11.76523 0,11.76522 -42.78268,0 -42.78268,0 z m -61.32184,-36.72177 0,-11.40871 23.88699,0 23.887,0 0,11.40871 0,11.4087 -23.887,0 -23.88699,0 z m 61.32184,0 0,-11.40871 42.78268,0 42.78268,0 0,11.40871 0,11.4087 -42.78268,0 -42.78268,0 z"
           style="fill:#3077ee" />
        <path
           sodipodi:nodetypes="csscsscccccccsssscsccssssscccccccccccccccccccccccccccccccccccccccccccccccccccccc"
           inkscape:connector-curvature="0"
           id="path4155"
           d="m 432.60099,367.83701 c -6.67413,-2.39665 -13.163,-8.70567 -15.56969,-15.13813 -1.4688,-3.9257 -1.46933,-3.98847 -1.28616,-152.7352 l 0.18324,-148.808178 1.63771,-3.324461 c 2.46666,-5.007215 6.65939,-9.335127 11.6813,-12.057945 l 4.50711,-2.443695 75.22621,0 75.22621,0 0.35652,47.417429 0.35653,47.41743 47.25879,0.18336 47.2588,0.18335 0.69197,1.82004 c 0.44354,1.16658 0.52891,40.782 0.23779,110.33847 -0.43888,104.86028 -0.50062,108.64454 -1.83147,112.25953 -1.73085,4.70151 -7.0729,10.62492 -12.08681,13.40222 l -3.80721,2.10887 -113.73062,0.15147 c -91.77816,0.12223 -114.22854,-0.0273 -116.31022,-0.77485 z m 201.73297,-66.18914 c 1.2397,-1.23969 1.2397,-120.40561 0,-121.64531 -1.24251,-1.24251 -171.02908,-1.24251 -172.27159,0 -1.2397,1.2397 -1.2397,120.40562 0,121.64531 1.24251,1.24251 171.02908,1.24251 172.27159,0 z m -159.57939,-24.10088 0,-11.40871 23.88699,0 23.887,0 0,11.40871 0,11.4087 -23.887,0 -23.88699,0 z m 61.32184,0 0,-11.40871 42.78268,0 42.78268,0 0,11.40871 0,11.4087 -42.78268,0 -42.78268,0 z m -61.32184,-36.72177 0,-11.76523 23.88699,0 23.887,0 0,11.76523 0,11.76522 -23.887,0 -23.88699,0 z m 61.32184,0 0,-11.76523 42.78268,0 42.78268,0 0,11.76523 0,11.76522 -42.78268,0 -42.78268,0 z m -61.32184,-36.72177 0,-11.40871 23.88699,0 23.887,0 0,11.40871 0,11.4087 -23.887,0 -23.88699,0 z m 61.32184,0 0,-11.40871 42.78268,0 42.78268,0 0,11.40871 0,11.4087 -42.78268,0 -42.78268,0 z"
           style="fill:#2359b3" />
        <g
           id="g4144">
          <path
             style="fill:#7cc7a6"
             d="m 434.06064,370.69942 c -7.34814,-1.9938 -13.79585,-7.61831 -17.58998,-15.3442 l -1.96837,-4.00813 0,-149.73924 0,-149.739254 1.911,-4.077232 c 2.66819,-5.692732 7.67565,-10.793334 13.32893,-13.576826 l 4.69399,-2.311175 74.01244,-0.203402 c 40.70684,-0.11187 74.50729,0.07353 75.11212,0.41201 0.60482,0.338476 22.90095,22.408012 49.54695,49.043412 l 48.44729,48.428007 -0.18701,110.88185 -0.187,110.88185 -1.99316,4.05879 c -2.95488,6.01724 -7.63715,10.83332 -13.19029,13.56726 l -4.75135,2.33919 -111.96324,0.13569 c -87.22035,0.10571 -112.68346,-0.0598 -115.22232,-0.7486 z m 199.70289,-129.87415 0,-60.25222 -85.56536,0 -85.56536,0 0,60.25222 0,60.25222 85.56536,0 85.56536,0 z m -159.5794,48.70091 c -0.59238,-0.59238 -0.85565,-4.27827 -0.85565,-11.97914 0,-7.70088 0.26327,-11.38677 0.85565,-11.97914 1.22508,-1.22508 47.68979,-1.22508 48.91486,0 1.19785,1.19785 1.19785,22.76043 0,23.95828 -1.22507,1.22507 -47.68978,1.22507 -48.91486,0 z m 61.32184,0 c -0.59237,-0.59238 -0.85565,-4.27827 -0.85565,-11.97914 0,-7.70088 0.26328,-11.38677 0.85565,-11.97914 1.2358,-1.2358 85.47043,-1.2358 86.70623,0 0.59238,0.59237 0.85566,4.27826 0.85566,11.97914 0,7.70087 -0.26328,11.38676 -0.85566,11.97914 -1.2358,1.23579 -85.47043,1.23579 -86.70623,0 z m -61.32184,-36.36525 c -0.59464,-0.59464 -0.85565,-4.35749 -0.85565,-12.33566 0,-7.97817 0.26101,-11.74102 0.85565,-12.33566 1.22508,-1.22508 47.68979,-1.22508 48.91486,0 1.19946,1.19945 1.19946,23.47187 0,24.67132 -1.22507,1.22507 -47.68978,1.22507 -48.91486,0 z m 61.32184,0 c -0.59464,-0.59464 -0.85565,-4.35749 -0.85565,-12.33566 0,-7.97817 0.26101,-11.74102 0.85565,-12.33566 1.2358,-1.2358 85.47043,-1.2358 86.70623,0 0.59465,0.59464 0.85566,4.35749 0.85566,12.33566 0,7.97817 -0.26101,11.74102 -0.85566,12.33566 -1.2358,1.2358 -85.47043,1.2358 -86.70623,0 z m -61.32184,-37.07829 c -0.59238,-0.59238 -0.85565,-4.27827 -0.85565,-11.97914 0,-7.70088 0.26327,-11.38677 0.85565,-11.97914 1.22508,-1.22507 47.68979,-1.22507 48.91486,0 1.19785,1.19785 1.19785,22.76043 0,23.95828 -1.22507,1.22507 -47.68978,1.22507 -48.91486,0 z m 61.32184,0 c -0.59237,-0.59238 -0.85565,-4.27827 -0.85565,-11.97914 0,-7.70088 0.26328,-11.38677 0.85565,-11.97914 1.2358,-1.2358 85.47043,-1.2358 86.70623,0 0.59238,0.59237 0.85566,4.27826 0.85566,11.97914 0,7.70087 -0.26328,11.38676 -0.85566,11.97914 -1.2358,1.2358 -85.47043,1.2358 -86.70623,0 z"
             id="path4161"
             inkscape:connector-curvature="0"
             sodipodi:nodetypes="cscccsscssscccsscsccccccccccsssssssssssssssssssssssssssssssssssssss" />
          <path
             style="fill:#109b57"
             d="m 432.60099,367.83677 c -6.67413,-2.39666 -13.163,-8.70568 -15.56969,-15.13814 -1.4688,-3.9257 -1.46933,-3.98847 -1.28616,-152.7352 l 0.18324,-148.807878 1.63771,-3.324461 c 2.46666,-5.007215 6.65939,-9.335127 11.6813,-12.057945 l 4.50711,-2.443695 75.22621,0 75.22621,0 0.35652,47.417429 0.35653,47.41743 47.25879,0.18336 47.2588,0.18335 0.69197,1.82004 c 0.44354,1.16658 0.52891,40.782 0.23779,110.33847 -0.43888,104.86028 -0.50062,108.64454 -1.83147,112.25953 -1.73085,4.70151 -7.0729,10.62492 -12.08681,13.40222 l -3.80721,2.10887 -113.73062,0.15147 c -91.77816,0.12223 -114.22854,-0.0273 -116.31022,-0.77485 z m 201.73297,-66.18885 c 1.2397,-1.23969 1.2397,-120.40561 0,-121.64531 -1.24251,-1.24251 -171.02908,-1.24251 -172.27159,0 -1.2397,1.2397 -1.2397,120.40562 0,121.64531 1.24251,1.24251 171.02908,1.24251 172.27159,0 z m -159.57939,-24.10088 0,-11.40871 23.88699,0 23.887,0 0,11.40871 0,11.4087 -23.887,0 -23.88699,0 0,-11.4087 z m 61.32184,0 0,-11.40871 42.78268,0 42.78268,0 0,11.40871 0,11.4087 -42.78268,0 -42.78268,0 0,-11.4087 z m -61.32184,-36.72177 0,-11.76523 23.88699,0 23.887,0 0,11.76523 0,11.76522 -23.887,0 -23.88699,0 0,-11.76522 z m 61.32184,0 0,-11.76523 42.78268,0 42.78268,0 0,11.76523 0,11.76522 -42.78268,0 -42.78268,0 0,-11.76522 z m -61.32184,-36.72177 0,-11.40871 23.88699,0 23.887,0 0,11.40871 0,11.4087 -23.887,0 -23.88699,0 0,-11.4087 z m 61.32184,0 0,-11.40871 42.78268,0 42.78268,0 0,11.40871 0,11.4087 -42.78268,0 -42.78268,0 0,-11.4087 z"
             id="path4153"
             inkscape:connector-curvature="0" />
          <path
             style="fill:#0a7541"
             d="m 649.80703,180.12348 c -16.07916,-12.72183 -36.85241,-29.12277 -46.1628,-36.44651 -9.31038,-7.32376 -16.67196,-13.57191 -16.35908,-13.8848 0.31288,-0.31287 21.24657,-0.48627 46.51931,-0.38532 l 45.95045,0.18355 0.18487,36.32298 c 0.10168,19.97764 -0.0588,36.55197 -0.35652,36.83185 -0.29777,0.27987 -13.69707,-9.89992 -29.77623,-22.62175 z"
             id="path4151"
             inkscape:connector-curvature="0" />
        </g>
      </g>
      <text
         sodipodi:linespacing="125%"
         id="text4149"
         y="1031.3589"
         x="58.990467"
         style="font-style:normal;font-weight:normal;font-size:12.49999809px;line-height:125%;font-family:sans-serif;letter-spacing:0px;word-spacing:0px;fill:#000000;fill-opacity:1;stroke:none;stroke-width:1px;stroke-linecap:butt;stroke-linejoin:miter;stroke-opacity:1"
         xml:space="preserve"><tspan
           style="fill:#808080"
           y="1031.3589"
           x="58.990467"
           id="tspan4151"
           sodipodi:role="line"><tspan
   id="tspan4153"
   style="font-style:normal;font-variant:normal;font-weight:normal;font-stretch:normal;font-size:24.99999619px;font-family:Aldhabi;-inkscape-font-specification:Aldhabi;fill:#808080">Google</tspan> Sheets</tspan></text>
    </g>
  </g>
</svg>
