<?xml version="1.0" encoding="UTF-8" standalone="no"?>
<svg
   xmlns:dc="http://purl.org/dc/elements/1.1/"
   xmlns:cc="http://creativecommons.org/ns#"
   xmlns:rdf="http://www.w3.org/1999/02/22-rdf-syntax-ns#"
   xmlns:svg="http://www.w3.org/2000/svg"
   xmlns="http://www.w3.org/2000/svg"
   xmlns:sodipodi="http://sodipodi.sourceforge.net/DTD/sodipodi-0.dtd"
   xmlns:inkscape="http://www.inkscape.org/namespaces/inkscape"
   id="Layer_1"
   data-name="Layer 1"
   viewBox="0 0 200 50"
   version="1.1"
   inkscape:version="0.91 r13725"
   sodipodi:docname="greenplum.svg"
   width="200"
   height="50">
  <metadata
     id="metadata21">
    <rdf:RDF>
      <cc:Work
         rdf:about="">
        <dc:format>image/svg+xml</dc:format>
        <dc:type
           rdf:resource="http://purl.org/dc/dcmitype/StillImage" />
        <dc:title>icon-pivotal-greenplum</dc:title>
      </cc:Work>
    </rdf:RDF>
  </metadata>
  <sodipodi:namedview
     pagecolor="#ffffff"
     bordercolor="#666666"
     borderopacity="1"
     objecttolerance="10"
     gridtolerance="10"
     guidetolerance="10"
     inkscape:pageopacity="0"
     inkscape:pageshadow="2"
     inkscape:window-width="1920"
     inkscape:window-height="986"
     id="namedview19"
     showgrid="false"
     inkscape:zoom="3.6875"
     inkscape:cx="61.868468"
     inkscape:cy="17.78341"
     inkscape:window-x="-11"
     inkscape:window-y="-11"
     inkscape:window-maximized="1"
     inkscape:current-layer="Layer_1" />
  <defs
     id="defs3">
    <style
       id="style5">.cls-1{fill:#07796f;}.cls-2{fill:#fff;}</style>
  </defs>
  <title
     id="title7">icon-pivotal-greenplum</title>
  <path
     style="fill:#06776d;fill-opacity:1"
     d="M 51.625658,45.980108 C 49.950504,45.81429 49.068994,45.670139 47.82503,45.358606 40.995392,43.64819 35.445597,38.54825 33.129443,31.854194 32.334507,29.556697 32,27.524025 32,24.990926 32,22.955708 32.149472,21.716844 32.623259,19.825024 34.485898,12.387528 40.387535,6.4858915 47.82503,4.6232446 49.716843,4.149465 50.955722,4.0000007 52.990932,4.0000007 c 2.03521,0 3.274082,0.1494643 5.165901,0.6232439 7.433149,1.8615547 13.340224,7.7686304 15.201772,15.2017794 0.473787,1.89182 0.623251,3.130684 0.623251,5.165902 0,2.035217 -0.149464,3.274081 -0.623251,5.165901 -1.42497,5.689908 -5.285721,10.619048 -10.478662,13.378466 -2.275299,1.209043 -4.598376,1.948682 -7.256512,2.310376 -0.792221,0.107797 -3.385776,0.195013 -3.997773,0.134439 z m 3.652004,-6.26477 c 4.833011,-0.818463 8.867543,-3.750968 10.982389,-7.982557 1.103747,-2.208482 1.581947,-4.219294 1.594559,-6.704956 0.0069,-1.349459 -0.06976,-2.104588 -0.333134,-3.284037 -0.161022,-0.721094 -0.657354,-2.289388 -0.722968,-2.284406 -0.02428,0.0018 -0.164269,0.261365 -0.311084,0.576721 l -0.266951,0.573378 0.136372,0.43801 c 1.000384,3.213146 0.665125,7.057897 -0.884424,10.142516 -2.030118,4.041277 -5.635556,6.727974 -10.119934,7.541153 -1.166786,0.211581 -3.370596,0.228104 -4.544067,0.03405 l -0.817231,-0.135133 -0.467234,0.301991 c -0.256974,0.166084 -0.501934,0.301977 -0.544346,0.301977 -0.04838,0 -0.05099,0.02448 -0.007,0.06567 0.09458,0.08859 1.2602,0.349953 1.988872,0.445972 0.324714,0.04278 0.690017,0.09191 0.811785,0.109163 0.474673,0.06725 2.839379,-0.02689 3.5044,-0.139516 z m -7.325491,-1.367407 c 1.43215,-0.496642 2.735913,-1.890911 5.100272,-5.454321 2.461965,-3.710511 4.379031,-5.856508 7.709561,-8.630228 3.271964,-2.724939 4.326723,-3.863459 4.858007,-5.243781 0.198237,-0.51504 0.265062,-1.492849 0.141007,-2.063283 -0.41494,-1.907959 -2.841755,-4.325572 -5.838568,-5.816436 -5.379209,-2.6760705 -11.874998,-1.9950345 -16.524206,1.732437 -5.740593,4.602479 -7.510195,12.445726 -4.279728,18.96865 0.817571,1.650838 1.579519,2.719383 2.896986,4.062679 2.219869,2.263403 4.157628,3.061232 5.936669,2.444283 z m -1.890019,-1.218665 c -1.494673,-0.418578 -3.650396,-2.375223 -5.080007,-4.610884 -0.499322,-0.780849 -1.09371,-2.041623 -1.409074,-2.988843 -0.581754,-1.747322 -0.795386,-3.230024 -0.728362,-5.055204 0.106321,-2.895207 0.991565,-5.463619 2.71488,-7.876841 0.582219,-0.815297 2.271853,-2.502606 3.07977,-3.075526 1.810413,-1.283815 3.832169,-2.131591 6.026917,-2.527233 0.913715,-0.164711 3.363378,-0.186851 4.317218,-0.03902 2.675376,0.414659 5.133341,1.539601 7.195362,3.293114 1.035129,0.880262 1.65821,1.627517 2.054464,2.463921 0.203079,0.428652 0.23282,0.568876 0.229676,1.08281 -0.0027,0.436556 -0.04418,0.680187 -0.159287,0.935021 -0.477986,1.058249 -1.532376,2.159546 -4.117415,4.300605 -1.169619,0.968732 -2.274118,1.970474 -3.252045,2.949479 -2.106729,2.109053 -3.087195,3.325165 -5.032894,6.242519 -1.491396,2.236171 -2.136816,3.092825 -2.891282,3.837527 -1.047298,1.033741 -1.929877,1.35365 -2.947921,1.068552 z m 8.626147,-0.413228 c 2.760141,-0.368971 5.53643,-1.906498 7.353971,-4.072664 1.257343,-1.498524 2.128263,-3.259359 2.534568,-5.124411 0.200548,-0.920571 0.317666,-2.239507 0.2638,-2.970829 -0.05914,-0.803039 -0.20071,-1.918763 -0.243454,-1.918763 -0.01812,0 -0.20254,0.148342 -0.409803,0.329658 l -0.376853,0.329658 -0.0067,1.607555 c -0.0072,1.743735 -0.06045,2.118787 -0.494997,3.489419 -0.473211,1.492569 -1.660461,3.39438 -2.762724,4.425494 -2.016952,1.886757 -4.766297,3.028163 -7.294053,3.028163 l -0.74623,0 -0.277298,0.371428 c -0.418748,0.560899 -0.417884,0.575246 0.03652,0.609392 0.52563,0.0395 1.738938,-0.01263 2.423235,-0.1041 z m 0.442792,-3.243271 c 1.997056,-0.496687 3.952497,-1.8592 5.105925,-3.557689 0.447433,-0.658882 0.989233,-1.847548 1.19795,-2.628219 0.163929,-0.613148 0.386985,-2.123946 0.323032,-2.187907 -0.01325,-0.01324 -0.245204,0.161184 -0.515469,0.387612 -0.481012,0.403 -0.493159,0.421973 -0.575754,0.898956 -0.24282,1.40238 -0.996776,2.873975 -2.058915,4.018643 -0.769431,0.82923 -2.332005,1.779011 -3.410557,2.073061 -0.454083,0.123797 -0.485484,0.147937 -0.822648,0.632454 -0.192799,0.277055 -0.350543,0.524538 -0.350543,0.549954 0,0.05753 0.387022,-0.0078 1.106979,-0.186865 z"
     id="path4190"
     inkscape:connector-curvature="0"
     sodipodi:nodetypes="sssssssssssssscscscccsssscsscscccsssssssssssssssssssscsssssscsssscccssscssccssscscsssss" />
  <path
     sodipodi:nodetypes="ccccsssscscsccccccssssscsscssssccssscccccccccccsccssssscccsscscsscsssssccssssscccsscscsssssssscsscscccssssscccccccccsscccccsscccscscscccccccssscssssccccssscccccccccccccccsscsccccccscscccssssscccsscssccccccsssscccsssscscsscscccscsssssscccsssssscsssscscccscscccsscssscccccccccccccsscscccsccccsscsssssscsccscccssscssscscccsscsscccccccscscccccssssssssccssscssssssssscs"
     inkscape:connector-curvature="0"
     id="path4192"
     d="m 127.34099,37.286794 0,-6.233084 0.52777,0 0.52778,0 0.0642,0.515687 c 0.0352,0.283628 0.0787,0.539633 0.0966,0.568897 0.0179,0.02926 0.25298,-0.160374 0.52249,-0.421402 0.66256,-0.641747 1.42695,-0.888541 2.53744,-0.819259 2.16069,0.134795 3.28446,1.682735 3.27108,4.505784 -0.007,1.604153 -0.3428,2.634603 -1.11836,3.43799 -1.19729,1.240248 -3.41697,1.308364 -4.71138,0.14458 -0.24393,-0.219324 -0.45775,-0.398801 -0.47517,-0.398836 -0.0174,-3.7e-5 -0.0198,1.109812 -0.005,2.466328 l 0.0265,2.4664 -0.63186,0 -0.63184,0 0,-6.233085 z m 4.80109,1.216985 c 1.03072,-0.451122 1.61243,-2.11332 1.38219,-3.949533 -0.12493,-0.996298 -0.36493,-1.529922 -0.90749,-2.017726 -0.51421,-0.462323 -1.14027,-0.640204 -1.89616,-0.538762 -1.26532,0.16981 -1.8061,0.777449 -2.04248,2.295004 -0.12104,0.776741 -0.0497,2.043887 0.15682,2.788771 0.15666,0.56496 0.6011,1.155991 1.03991,1.38291 0.62112,0.321198 1.58499,0.337915 2.26721,0.03934 z M 84.78561,39.7002 c -1.59345,-0.280955 -2.91039,-1.260446 -3.57562,-2.659375 -0.98033,-2.061591 -0.82713,-4.938494 0.35792,-6.721067 0.51784,-0.778938 1.06721,-1.250948 1.96211,-1.685785 0.8968,-0.435759 1.83118,-0.629541 3.0356,-0.629541 1.40244,0 3.46599,0.461696 3.34617,0.748669 -0.40654,0.973581 -0.4545,1.055787 -0.58939,1.010523 -1.7417,-0.584466 -2.97856,-0.725917 -4.07913,-0.466504 -2.22497,0.52444 -3.4059,2.349818 -3.25421,5.030081 0.19235,3.398528 2.33732,4.830586 6.22699,4.157359 l 0.56053,-0.09703 0,-1.783531 0,-1.783542 -1.25559,0 -1.25558,0 0,-0.58295 0,-0.582951 1.9295,0 1.92949,0 -0.0237,2.802646 -0.0237,2.802646 -0.77189,0.193844 c -0.84351,0.211818 -2.39845,0.393743 -3.25707,0.381062 -0.29972,-0.0044 -0.86782,-0.06498 -1.26243,-0.134563 z m 17.10848,0.0068 c -2.06001,-0.447554 -3.1783,-2.161311 -3.04231,-4.662338 0.13549,-2.492086 1.40289,-4.005299 3.47354,-4.147225 1.63815,-0.11229 2.90451,0.65868 3.49755,2.12932 0.14955,0.370856 0.20964,0.743657 0.24216,1.502218 l 0.0433,1.008953 -2.98248,0 -2.98246,0 0.0626,0.560529 c 0.13586,1.218115 0.81061,2.129033 1.80982,2.443325 0.83691,0.263241 2.33189,0.107125 3.58728,-0.374605 0.0977,-0.0375 0.12399,0.07639 0.12399,0.53765 l 0,0.585229 -0.56054,0.185146 c -1.09184,0.360648 -2.28898,0.445445 -3.27234,0.231798 z m 2.81127,-5.664196 c -0.0638,-0.542683 -0.32204,-1.21486 -0.57371,-1.493152 -0.23895,-0.264228 -0.79594,-0.514295 -1.27082,-0.570538 -1.26768,-0.15014 -2.33811,0.699944 -2.59189,2.058381 -0.043,0.230202 -0.0567,0.440001 -0.0305,0.466225 0.0263,0.02623 1.05546,0.04767 2.28719,0.04767 l 2.23953,0 z m 6.24689,5.664196 c -2.06002,-0.447554 -3.1783,-2.161301 -3.04231,-4.662338 0.13547,-2.492077 1.40288,-4.005299 3.47353,-4.147225 1.63815,-0.112278 2.90452,0.65869 3.49755,2.12932 0.14955,0.370856 0.20965,0.743657 0.24217,1.502218 l 0.0433,1.008953 -2.98246,0 -2.98246,0 0.0625,0.560529 c 0.13588,1.218124 0.81061,2.129033 1.80983,2.443333 0.83692,0.263243 2.3319,0.107113 3.58729,-0.374613 0.0977,-0.0375 0.12398,0.07639 0.12398,0.53765 l 0,0.585238 -0.56053,0.185145 c -1.09184,0.36064 -2.28898,0.445437 -3.27235,0.23179 z m 2.81128,-5.664196 c -0.0638,-0.542683 -0.32206,-1.21486 -0.57373,-1.493152 -0.23894,-0.264228 -0.79593,-0.514295 -1.27081,-0.570538 -1.2677,-0.15014 -2.33812,0.699944 -2.5919,2.058381 -0.043,0.230202 -0.0567,0.440001 -0.0305,0.466225 0.0263,0.02623 1.05545,0.04767 2.28718,0.04767 l 2.23952,0 z m 29.55968,5.669003 c -0.91837,-0.208947 -1.45902,-0.634007 -1.82966,-1.438488 -0.20234,-0.439186 -0.20717,-0.518198 -0.23398,-3.83402 l -0.0273,-3.385595 0.62653,0 0.62651,0 0.0329,3.116541 c 0.0357,3.384521 0.0529,3.51102 0.5456,4.034115 0.36245,0.384766 0.76903,0.509839 1.61594,0.497123 1.2069,-0.01812 1.85228,-0.458451 2.27067,-1.549222 0.13171,-0.343358 0.16012,-0.828498 0.19045,-3.251069 l 0.0356,-2.847488 0.6202,0 0.62018,0 0,4.304864 0,4.304863 -0.53164,0 -0.53166,0 -0.0625,-0.515687 c -0.0344,-0.283636 -0.0784,-0.5433 -0.0978,-0.577049 -0.0194,-0.03374 -0.22863,0.131998 -0.46495,0.368317 -0.7524,0.75241 -2.12528,1.063983 -3.40514,0.772795 z m -50.60051,-4.353249 0,-4.304864 0.52592,0 0.52591,0 0.057,0.416101 c 0.0314,0.228849 0.057,0.549337 0.057,0.712177 0,0.415573 0.13172,0.449787 0.35304,0.09169 0.24828,-0.401725 0.79993,-0.894237 1.27966,-1.142466 0.28525,-0.147594 0.58302,-0.207916 1.14753,-0.232463 0.41927,-0.01823 0.81801,0.0047 0.88607,0.05098 0.0975,0.0663 0.10695,0.19545 0.0443,0.60973 l -0.0795,0.525615 -0.60297,-0.03025 c -1.49399,-0.07494 -2.61971,0.898702 -2.84555,2.461162 -0.0492,0.340102 -0.0902,1.637408 -0.0912,2.882904 l -0.002,2.264539 -0.6278,0 -0.62779,0 0,-4.304865 z m 24.66328,0 0,-4.304864 0.53207,0 c 0.59013,0 0.57736,-0.01382 0.68375,0.7399 0.0331,0.2343 0.0749,0.426002 0.093,0.426002 0.0181,0 0.19518,-0.17615 0.39362,-0.391438 0.21345,-0.231557 0.58966,-0.496467 0.92112,-0.648609 0.5026,-0.230695 0.65728,-0.25735 1.502,-0.258785 1.21499,-0.0021 1.75259,0.172975 2.34223,0.762625 0.71401,0.714007 0.7369,0.8523 0.77546,4.684121 l 0.0332,3.295913 -0.67859,0 -0.67858,0 -0.002,-3.161386 c -0.002,-3.512042 -0.0187,-3.623295 -0.61216,-4.122659 -0.71423,-0.600978 -2.46359,-0.50201 -3.18199,0.180023 -0.67877,0.644393 -0.7778,1.2126 -0.7778,4.462736 l 0,2.641286 -0.67264,0 -0.67263,0 z m 19.82031,-1.838536 0,-6.143399 0.6278,0 0.62779,0 0,6.143399 0,6.143401 -0.62779,0 -0.6278,0 z m 13.99081,1.838536 0,-4.304864 0.53207,0 c 0.59056,0 0.57722,-0.0145 0.68445,0.744581 l 0.0609,0.430693 0.39847,-0.415878 c 0.21916,-0.22873 0.62793,-0.523435 0.90839,-0.654895 0.44752,-0.209781 0.61962,-0.238723 1.40675,-0.23657 0.73853,0.0021 0.976,0.03849 1.34527,0.206598 0.50522,0.230005 0.89403,0.565883 1.09042,0.941958 l 0.13272,0.254166 0.44169,-0.460674 c 0.58384,-0.608941 1.23358,-0.90325 2.12925,-0.964469 1.86472,-0.12746 2.91607,0.656384 3.15437,2.351764 0.0485,0.345287 0.0891,1.929343 0.09,3.520124 l 10e-4,2.892331 -0.67263,0 -0.67264,0 0,-3.05441 c 0,-2.000694 -0.0355,-3.195392 -0.10293,-3.463092 -0.22409,-0.889932 -1.0868,-1.320651 -2.23961,-1.118161 -1.01152,0.177674 -1.57367,0.772444 -1.78219,1.885665 -0.0498,0.265699 -0.0905,1.668143 -0.0905,3.116542 l 0,2.633456 -0.62172,0 -0.6217,0 -0.031,-3.206227 c -0.0326,-3.371104 -0.0493,-3.515738 -0.45799,-3.954645 -0.34132,-0.366596 -0.69298,-0.495571 -1.36172,-0.499436 -1.1225,-0.0064 -1.76434,0.378971 -2.12411,1.275683 -0.1961,0.488781 -0.20597,0.633999 -0.23419,3.447452 l -0.0294,2.937173 -0.66707,0 -0.66708,0 0,-4.304865 z m 17.29376,-1.217648 c -0.81749,-0.251602 -1.44739,-1.311719 -1.28708,-2.166198 0.18376,-0.979528 0.924,-1.638494 1.84057,-1.638494 1.63895,0 2.45153,1.995438 1.33096,3.268467 -0.26486,0.300892 -0.47491,0.440405 -0.81531,0.541489 -0.54004,0.160374 -0.53077,0.160419 -1.06914,-0.0053 z m 1.22983,-0.206517 c 0.70622,-0.320784 1.07866,-1.009034 1.00788,-1.862518 -0.0751,-0.905303 -0.80082,-1.590781 -1.68422,-1.590781 -1.46791,0 -2.25055,1.848563 -1.27401,3.009127 0.28568,0.339501 0.84924,0.608815 1.27401,0.608815 0.17264,0 0.47699,-0.07409 0.67634,-0.164643 z m -1.30413,-1.725578 0,-1.086995 0.54083,0.03912 c 0.3375,0.02442 0.59599,0.09429 0.68758,0.18588 0.19063,0.190634 0.18799,0.645514 -0.005,0.858757 -0.13542,0.149639 -0.13702,0.179881 -0.0149,0.281197 0.0856,0.07102 0.13341,0.252113 0.12778,0.483697 l -0.009,0.370182 -0.0825,-0.351716 c -0.11593,-0.494619 -0.22469,-0.589973 -0.67277,-0.589973 l -0.3926,0 0,0.448424 c 0,0.246632 -0.0404,0.448423 -0.0897,0.448423 -0.0549,0 -0.0897,-0.422119 -0.0897,-1.086996 z m 1.14796,-0.09684 c 0.0592,-0.0592 0.10767,-0.212553 0.10767,-0.340803 0,-0.337815 -0.15928,-0.448423 -0.64573,-0.448423 l -0.43048,0 0,0.448423 0,0.448424 0.43048,0 c 0.23677,0 0.47891,-0.04843 0.53811,-0.107624 z M 103.79876,18.640532 c -1.27699,-0.316425 -2.17963,-1.188833 -2.65302,-2.564174 -0.1646,-0.4782 -0.20142,-0.784401 -0.2049,-1.704009 -0.006,-1.70869 0.33994,-2.650002 1.30347,-3.542069 0.72308,-0.669451 1.3098,-0.8863365 2.40645,-0.8896005 0.77056,-0.0023 0.90927,0.02434 1.45106,0.2786765 1.52088,0.713954 2.22601,2.015287 2.22601,4.108151 0,1.138546 -0.14237,1.799971 -0.55349,2.571313 -0.74889,1.405027 -2.40545,2.130773 -3.97558,1.741712 z m 2.21967,-0.621048 c 1.49047,-0.729217 2.25727,-2.768486 1.81889,-4.837232 -0.25044,-1.181892 -0.93256,-2.105833 -1.91157,-2.589233 -0.35219,-0.173899 -0.56557,-0.209091 -1.27499,-0.210247 -0.75044,-0.0012 -0.91213,0.02813 -1.35643,0.246336 -0.56185,0.275915 -1.21945,0.924801 -1.50554,1.485563 -0.5972,1.170611 -0.59812,3.253258 -0.002,4.42185 0.23046,0.451759 0.8108,1.090054 1.22228,1.344364 0.82839,0.511974 2.12418,0.571651 3.0093,0.138599 z m 6.10082,0.660339 c -0.45454,-0.108001 -0.70474,-0.317734 -0.93367,-0.782705 -0.21016,-0.42681 -0.21231,-0.461651 -0.24099,-3.905929 l -0.0289,-3.475281 -0.7558,0 c -0.7464,0 -0.75579,-0.0028 -0.75579,-0.224212 0,-0.221574 0.009,-0.224211 0.76232,-0.224211 l 0.76231,0 0,-1.1659015 0,-1.1658999 0.22421,0 0.22422,0 0,1.1658999 0,1.1659015 0.98653,0 0.98653,0 0,0.224211 0,0.224212 -0.99052,0 -0.99052,0 0.0264,3.430439 c 0.0244,3.173088 0.0394,3.456492 0.19881,3.777787 0.22767,0.458692 0.6221,0.62461 1.37144,0.576897 0.52989,-0.03375 0.56375,-0.0242 0.56375,0.15893 0,0.146465 -0.0696,0.20875 -0.28027,0.250884 -0.34842,0.06968 -0.75286,0.05859 -1.13002,-0.03103 z m 4.56596,-0.05297 c -1.10861,-0.298345 -1.72245,-1.0794 -1.71874,-2.186934 0.004,-0.992002 0.4166,-1.597364 1.44696,-2.119491 0.71035,-0.359958 1.48598,-0.482889 3.05772,-0.48462 l 1.41254,-0.0016 -9e-4,-0.919267 c -0.001,-1.13253 -0.21895,-1.707139 -0.79077,-2.085555 -1.04477,-0.691388 -2.75159,-0.657299 -3.71053,0.07412 -0.43754,0.333717 -0.78557,0.885591 -0.78774,1.24912 -0.001,0.202893 -0.0412,0.246633 -0.22569,0.246633 -0.25771,0 -0.27734,-0.112497 -0.11557,-0.662232 0.15958,-0.54244 0.96155,-1.315692 1.64091,-1.582136 0.69619,-0.2730455 1.99942,-0.3010005 2.70517,-0.05804 0.58738,0.202221 1.20965,0.746696 1.47942,1.294464 0.2038,0.413814 0.2107,0.5087 0.26274,3.608794 0.0294,1.751094 0.0846,3.274611 0.12257,3.385596 0.0597,0.174025 0.0382,0.201791 -0.15596,0.201791 -0.26918,0 -0.29754,-0.06245 -0.38058,-0.83778 l -0.0643,-0.599991 -0.44477,0.451841 c -0.5336,0.542098 -1.14134,0.866048 -1.94375,1.036135 -0.73823,0.156464 -1.1768,0.1538 -1.78875,-0.01094 z m 2.44272,-0.607569 c 0.68754,-0.314766 1.14067,-0.686204 1.47753,-1.211138 0.27082,-0.422038 0.27823,-0.461678 0.27823,-1.487931 l 0,-1.054342 -1.6816,0.03867 c -1.44813,0.0333 -1.7579,0.06623 -2.23134,0.237207 -1.61291,0.582476 -2.14442,2.09282 -1.103,3.134246 0.51167,0.511661 0.93839,0.646465 1.92962,0.609623 0.6464,-0.02404 0.92165,-0.07912 1.33056,-0.266336 z m -37.97455,-5.171568 0,-5.7398197 2.08517,0.00134 c 2.28911,0.00146 2.89179,0.085396 3.67547,0.5119294 0.54313,0.2956102 0.92132,0.7171008 1.2257,1.3660318 0.20771,0.442845 0.23299,0.605479 0.23066,1.4838865 -0.003,1.232088 -0.18738,1.715023 -0.90323,2.369263 -0.81342,0.743423 -1.20938,0.836965 -3.73534,0.882425 l -2.13001,0.03834 0,2.413217 0,2.413218 -0.22421,0 -0.22421,0 0,-5.739819 z m 4.95938,0.26813 c 1.20005,-0.370657 1.86984,-1.29962 1.87552,-2.601285 0.006,-1.3096655 -0.49463,-2.1599405 -1.56071,-2.6521737 l -0.56574,-0.2612244 -2.13002,-0.029531 -2.13001,-0.029531 0,2.8770221 0,2.877021 1.96362,0 c 1.71361,0 2.03793,-0.02294 2.54734,-0.180293 z m 4.63688,1.211667 c 0,-4.200229 0.003,-4.260022 0.17937,-4.260022 0.17685,0 0.17937,0.05979 0.17937,4.260022 0,4.20023 -0.003,4.260022 -0.17937,4.260022 -0.17685,0 -0.17937,-0.05979 -0.17937,-4.260022 z m 3.86831,0.06727 c -0.89471,-2.306017 -1.62662,-4.223027 -1.62646,-4.260022 0,-0.03699 0.0911,-0.06635 0.20206,-0.06522 0.18256,0.0018 0.34624,0.373715 1.71774,3.902484 0.83378,2.14524 1.53256,3.883849 1.55284,3.863572 0.0203,-0.02028 0.7119,-1.766304 1.53693,-3.880064 1.41409,-3.622939 1.51346,-3.844774 1.734,-3.870692 0.25458,-0.02993 0.46665,-0.6200705 -2.6767,7.448904 -0.64783,1.662995 -0.50707,1.844051 -2.44041,-3.138964 z m 29.58408,-1.860948 c 0,-5.9939219 0.001,-6.0537152 0.17936,-6.0537152 0.17759,0 0.17937,0.059791 0.17937,6.0537152 0,5.993923 -0.001,6.053716 -0.17937,6.053716 -0.17759,0 -0.17936,-0.05979 -0.17936,-6.053716 z M 90.61515,7.6138062 c -0.26487,-0.4042268 0.14153,-0.8188124 0.54409,-0.5550494 0.25016,0.1639074 0.28191,0.4210424 0.0773,0.6256938 -0.20291,0.2029027 -0.46138,0.1735128 -0.62136,-0.070643 z"
     style="fill:#000000" />
</svg>
