<svg width="120" height="60" xmlns="http://www.w3.org/2000/svg">

  <g>
    <title>background</title>
    <rect fill="none" id="canvas_background" height="402" width="582" y="-1" x="-1"/>
  </g>
  <g>
    <title>Layer 1</title>
    <path stroke="null" id="svg_1" fill="#d4000e" d="m50.789808,4.665124c3.657301,-2.782853 8.241871,-2.267239 12.339205,-1.609008l-0.389787,8.747155c-2.009841,-0.468075 -4.95304,-1.402397 -6.294456,1.126306c-1.047553,2.782853 -0.517686,5.978929 -0.619701,8.946453l6.334044,-0.007314l0.00609,8.286394c-2.119469,-0.007314 -4.232847,0.014627 -6.352315,0.007314l0,25.045679l-8.587502,0.007314l0.00609,-39.885125c0,-3.876248 0.669947,-8.355873 3.555287,-10.663338l0.003045,-0.001828zm55.151863,19.80726c3.057394,-3.097341 7.174523,-3.587357 11.023673,-3.50325l0.00609,9.07627c-2.783325,-0.731367 -6.052362,-1.2031 -8.450468,1.073282c-2.093584,2.161191 -2.367654,5.719294 -2.481849,8.812978l-0.045678,15.292894l-8.566186,-0.023769l-0.00609,-33.332073l8.596638,0l-0.091356,2.596355l0.015226,0.007314zm-103.156609,-13.59795l8.630135,-7.052211l-0.012181,12.586834c-2.873159,0 -5.744795,0 -8.617954,-0.007314l0,-5.52731zm0,11.001595l8.617954,-0.007314l0.00609,33.344872a1356.855807,1629.377039 0 0 1 -8.624045,-0.014627l0,-33.322931zm21.316495,2.779196c1.218085,-1.364 2.579296,-2.674977 4.263299,-3.053459c3.49895,-0.919695 7.582582,-0.981861 10.609524,1.632778c2.873159,2.605497 3.479156,7.251509 3.623804,11.292314c0.133989,6.883996 0,13.775306 0.07004,20.666617l-8.636226,0l0,-17.677152c-0.063949,-2.194102 -0.172055,-4.730119 -1.629189,-6.300731c-2.579296,-2.406199 -7.130368,-0.744166 -7.578014,3.38806c-0.695831,6.814516 -0.14617,13.71314 -0.304521,20.587995l-8.617954,0.023769l-0.00609,-33.344872l8.286026,0.007314l-0.082221,2.77554l0.001523,0.001828zm50.425691,-3.049802c5.240813,-1.440794 11.19725,-0.127989 15.19257,4.388205c5.49052,6.07035 5.822448,17.501624 0.829821,24.135127c-6.52437,8.730699 -20.101455,7.8622 -25.278318,-2.353175c-2.557979,-5.097631 -2.713285,-11.767703 -0.587726,-17.110342c1.85758,-4.662468 5.694549,-7.911568 9.843653,-9.023246l0,-0.036568z"/>
    <path stroke="null" id="svg_2" fill="#fff" d="m76.79242,30.608397c3.093008,-0.582766 6.746167,0.452296 8.379651,3.326114c2.04229,3.653159 1.429951,9.138116 -2.355418,11.436127c-2.95384,1.64914 -7.045378,1.487358 -9.649558,-0.772382c-4.435979,-3.9976 -2.765963,-13.128757 3.625325,-13.98638l0,-0.003479z"/>
  </g>
</svg>
