<?xml version="1.0" encoding="UTF-8" standalone="no"?>
<svg xmlns:rdf="http://www.w3.org/1999/02/22-rdf-syntax-ns#" xmlns="http://www.w3.org/2000/svg" height="50" width="200" version="1.1" xmlns:cc="http://creativecommons.org/ns#" xmlns:xlink="http://www.w3.org/1999/xlink" xmlns:dc="http://purl.org/dc/elements/1.1/">
 <defs>
  <linearGradient id="b" y2="-258.96" gradientUnits="userSpaceOnUse" y1="-29.89" gradientTransform="matrix(.38131 0 0 .38131 469.54 593.27)" x2="-23.847" x1="-411.53">
   <stop stop-color="#909ca9" offset="0"/>
   <stop stop-color="#ededee" offset="1"/>
  </linearGradient>
  <linearGradient id="c" y2="-889.06" gradientUnits="userSpaceOnUse" y1="-889.06" gradientTransform="matrix(.38131 0 0 .38131 469.54 593.27)" x2="-135.86" x1="-447.8">
   <stop stop-color="#939fab" offset="0"/>
   <stop stop-color="#dcdee1" offset="1"/>
  </linearGradient>
  <radialGradient id="a" gradientUnits="userSpaceOnUse" cx="-1259.1" cy="-245.43" r="414.16" gradientTransform="matrix(-.36636 -.055401 .11065 -.73170 -23.142 105.82)">
   <stop stop-color="#ee352c" offset="0"/>
   <stop stop-color="#a91d22" offset="1"/>
  </radialGradient>
 </defs>
 <metadata>
  <rdf:RDF>
   <cc:Work rdf:about="">
    <dc:format>image/svg+xml</dc:format>
    <dc:type rdf:resource="http://purl.org/dc/dcmitype/StillImage"/>
    <dc:title/>
   </cc:Work>
  </rdf:RDF>
 </metadata>
 <g transform="translate(7.9473 -724.04)">
  <g transform="matrix(.18951 0 0 .18951 -89.539 657.42)">
   <path d="m780.7 458.11c-17.239-0.242-28.431 5.4021-33.661 16.92-7.7092 16.976-0.8344 29.806 23.683 44.124 13.772 8.0432 19.88 14.972 19.88 22.56 0 15.658-18.948 21.217-38.484 11.305-3.97-2.0142-7.3735-3.6716-7.5795-3.6749-0.69387 4.4346-0.3828 15.082-0.3828 15.082s5.9762 2.4931 14.98 4.2874c22.349 4.4536 42.643-6.0305 44.558-23.019 1.7814-15.804-4.0216-24.197-25.826-37.311-14.599-8.78-21.035-15.158-20.212-22.713 2.2658-20.791 27.935-17.867 42.083-10.029l0.051-13.985s-7.8725-3.3898-19.089-3.5473zm85.901 0.0765c-1.0355 0.009-2.1026 0.0443-3.1645 0.10208-21.181 1.1533-35.476 10.493-43.895 28.71-7.1427 16.483-6.3492 38.047 0.1276 54.562 7.478 16.195 19.639 24.749 39.837 28.021 4.2513 0.68877 7.162 3.0865 15.414 12.76l10.183 11.943h18.528l-12.326-12.403c-6.7786-6.814-12.326-12.775-12.326-13.245 0-0.47028 2.5958-1.6273 5.7676-2.5775 10.416-3.1208 18.987-11.138 25.061-23.428 4.859-9.8316 5.6091-12.863 6.2524-25.163 1.9176-36.661-17.357-59.569-49.458-59.283v-0.00004zm189.46 0.1276c-17.239-0.24199-28.456 5.4021-33.687 16.92-7.7091 16.976-0.8089 29.806 23.708 44.124 13.772 8.0432 19.855 14.946 19.855 22.534 0 15.658-18.923 21.243-38.459 11.331-3.9701-2.0142-7.3991-3.6716-7.6051-3.6749-0.6938 4.4346-0.3572 15.082-0.3572 15.082s5.9506 2.4676 14.955 4.2619c22.349 4.4536 42.643-6.0305 44.558-23.019 1.7813-15.804-4.0216-24.197-25.826-37.311-14.599-8.78-21.035-15.133-20.212-22.687 2.2658-20.791 27.935-17.867 42.083-10.029l0.051-13.985s-7.847-3.3898-19.064-3.5473zm-123.15 1.1484v53.924 53.924h28.455 28.455v-5.2316-7.5285h-43.435v-46.396-48.693h-6.7373-6.7373zm-67.297 10.183c22.514 0 35.337 13.771 36.953 39.684 1.3415 21.503-5.8743 37.75-19.727 44.456-8.9642 4.3395-22.063 5.2369-30.624 2.0927-8.7866-3.227-17.327-12.375-21.233-22.738-4.268-11.325-3.6533-32.253 1.225-41.649 7.8067-15.036 18.214-21.845 33.406-21.845zm455.69 18.859c-2.6305 0.0417-5.3981 0.35965-8.243 0.96977-17.951 4.71-28.089 21.882-27.409 39.582 0.011 14.851 2.8907 22.191 10.029 29.935 14.616 12.052 27.902 12.958 45.834 6.5587 3.0934-1.3277 6.38-2.8072 6.38-2.8072l-0.025-12.02-6.3545 3.3432c-14.471 6.2746-25.389 6.2883-34.12-1.1484-5.5991-5.7111-7.9934-12.409-9.1873-20.212h27.077 27.077v-10.336c0-20.946-12.645-34.157-31.058-33.865zm-197.78 0.17869c-2.6305 0.0417-5.3726 0.35964-8.2175 0.96976-17.951 4.71-28.114 21.856-27.434 39.556 0.011 14.851 2.9162 22.216 10.055 29.961 14.616 12.052 27.876 12.958 45.809 6.5587 3.0934-1.3277 6.38-2.8328 6.38-2.8328v-11.994l-6.38 3.3432c-14.471 6.2746-25.389 6.2884-34.12-1.1484-5.5991-5.7111-7.9934-12.434-9.1873-20.238h27.102 27.077v-10.31c0-20.946-12.67-34.157-31.084-33.865zm276.72 0.56144c-7.7994 0-13.75 3.1292-17.711 9.3149l-3.139 4.9254-0.025-6.3545-0.025-6.38h-6.7373-6.7373v38.204 38.204h6.7373 6.7373v-24.397c0-22.323 0.2851-24.969 3.3687-31.084 4.241-8.4102 11.671-12.561 18.808-10.514l4.7724 1.3781v-6.6608-6.6352h-6.0483-0.0004zm-197.78 0.17864c-7.7994 0-13.724 3.1292-17.686 9.3149l-3.1645 4.9254-0.025-6.38-0.026-6.3545h-6.7374-6.7373v38.204 38.178h6.7373 6.7374v-24.397c0-22.323 0.285-24.969 3.3686-31.084 4.241-8.4102 11.671-12.561 18.808-10.514l4.7978 1.3781v-6.6352-6.6352h-6.0738-0.0001zm10.489 1.3673c9.0204 25.434 18.762 51.388 28.634 76.495 4.275 0.0451 8.5615 0.0296 12.837 0.0255l15.082-37.821 15.338-38.675h-13.296s-5.8675 15.334-11.994 32.525l-11.127 29.001-10.693-29.205-10.872-32.345h-13.908zm107.57 9.2747c4.024 0.0152 7.9955 1.2971 11.356 3.8791 6.8141 5.2346 7.9623 18.119 7.9623 18.119h-40.45s2.0402-13.098 9.4425-18.272c3.5662-2.4928 7.6642-3.7411 11.688-3.726zm-197.78 0.17864c4.024 0.0152 7.9955 1.2971 11.356 3.8791 6.814 5.2346 7.9623 18.094 7.9623 18.094h-40.424s2.0401-13.073 9.4424-18.247c3.5662-2.4928 7.6388-3.7411 11.663-3.726z"/>
   <g fill="#231f1f">
    <path d="m786.95 447.89h-4.4613v-25.598c0-2.0185 0.12109-4.4873 0.36374-7.3894h-0.10429c-0.42434 1.6979-0.80557 2.928-1.1435 3.6904l-12.994 29.297h-2.1831l-13.029-29.081c-0.37262-0.81428-0.75364-2.1224-1.1435-3.9069h-0.10382c0.13882 1.5247 0.21657 4.0022 0.21657 7.4414v25.546h-4.3141v-38.125h5.908l11.695 26.586c0.88355 2.0011 1.464 3.5258 1.7326 4.574h0.18215c0.76223-2.0878 1.3687-3.647 1.8364-4.6779l11.937-26.482h5.6048"/>
    <path d="m800.72 420.67v27.218h-4.3574v-27.218h4.3574zm0.74496-9.7543c0 0.797-0.28598 1.464-0.84021 2.0184-0.55446 0.54573-1.2388 0.82295-2.0358 0.82295-0.77961 0-1.4467-0.26878-2.0097-0.79696-0.55446-0.52845-0.83164-1.2128-0.83164-2.0444 0-0.80561 0.27706-1.4726 0.83164-2.0097 0.56304-0.54578 1.2301-0.81428 2.0097-0.81428 0.79699 0 1.4814 0.26825 2.0358 0.81428 0.55435 0.53711 0.84021 1.2041 0.84021 2.0097"/>
    <path d="m827.89 446.64c-2.0876 1.2734-4.5825 1.9144-7.4672 1.9144-3.8983 0-7.0429-1.2907-9.4424-3.8809-2.3389-2.5208-3.5084-5.7608-3.5084-9.7283 0-4.47 1.282-8.0737 3.8462-10.82 2.5555-2.746 6.0033-4.1234 10.326-4.1234 2.3736 0 4.47 0.45925 6.2978 1.386v4.4613c-2.0184-1.412-4.1841-2.1224-6.4884-2.1224-2.7634 0-5.0157 0.96155-6.7743 2.8934-1.8278 1.9838-2.7374 4.6259-2.7374 7.9264 0 3.1705 0.83164 5.6741 2.5122 7.5193 1.672 1.8452 3.9156 2.7634 6.7396 2.7634 2.3737 0 4.6087-0.77963 6.6963-2.3389"/>
    <path d="m848.68 425.08c-0.76234-0.58909-1.8712-0.87497-3.3266-0.87497-1.7671 0-3.2571 0.797-4.4612 2.391-1.3687 1.7845-2.0445 4.262-2.0445 7.4153v13.878h-4.3661v-27.227h4.3661v5.6135h0.10429c0.63245-1.9838 1.6199-3.5171 2.954-4.5999 1.2388-0.98755 2.6249-1.49 4.1669-1.49 1.1522 0 2.027 0.12995 2.6074 0.37262"/>
    <path d="m872.97 434.33c0-3.4911-0.78841-6.1506-2.365-7.9784-1.5246-1.7499-3.6556-2.6335-6.4104-2.6335-2.7115 0-4.8771 0.89225-6.5057 2.6595-1.7239 1.8971-2.5815 4.5826-2.5815 8.0564 0 3.2658 0.82294 5.8127 2.4688 7.6405 1.6546 1.8365 3.8549 2.7548 6.6183 2.7548 2.876 0 5.0591-0.92691 6.5664-2.7894 1.4727-1.8105 2.209-4.3747 2.209-7.7098m4.4699-0.15604c0 4.3401-1.23 7.8225-3.673 10.447-2.4429 2.6162-5.7434 3.9329-9.8842 3.9329-4.0975 0-7.3373-1.3167-9.737-3.9329-2.3389-2.5382-3.5084-5.882-3.5084-10.023 0-4.7386 1.3341-8.3942 3.9935-10.984 2.4603-2.4082 5.7607-3.6124 9.8842-3.6124 4.0629 0 7.2335 1.2561 9.5032 3.777 2.2782 2.5122 3.4217 5.9773 3.4217 10.395"/>
    <path d="m899.05 440.6c0 2.235-0.83164 4.0888-2.5035 5.5528-1.8192 1.6026-4.3142 2.3996-7.4674 2.3996-2.5902 0-4.8338-0.55438-6.7482-1.6546v-4.6779c2.1224 1.7412 4.4786 2.6075 7.0687 2.6075 3.4564 0 5.1803-1.2648 5.1803-3.803 0-1.0655-0.381-1.9405-1.1435-2.6335-0.76234-0.69305-2.2437-1.516-4.4613-2.4949-2.287-0.99625-3.9068-2.0184-4.8685-3.084-1.1522-1.2561-1.7239-2.902-1.7239-4.9204 0-2.2697 0.89224-4.1495 2.6855-5.6481 1.7845-1.4987 4.0888-2.2436 6.9128-2.2436 2.1571 0 4.0976 0.42429 5.8214 1.2734v4.3833c-1.7932-1.2908-3.8462-1.9404-6.1679-1.9404-1.4553 0-2.6161 0.3554-3.4824 1.0655-0.87498 0.71033-1.3081 1.62-1.3081 2.7374 0 1.2041 0.36373 2.1484 1.0916 2.8154 0.6584 0.62369 2.0184 1.3774 4.0975 2.261 2.3217 0.97888 3.9935 1.9751 5.0245 3.006 1.3254 1.3167 1.9924 2.98 1.9924 4.9984"/>
    <path d="m925.69 434.33c0-3.4911-0.78818-6.1506-2.3649-7.9784-1.5247-1.7499-3.6643-2.6335-6.4104-2.6335-2.7114 0-4.8772 0.89225-6.5144 2.6595-1.7152 1.8971-2.5729 4.5826-2.5729 8.0564 0 3.2658 0.82306 5.8127 2.469 7.6405 1.6546 1.8365 3.8549 2.7548 6.6183 2.7548 2.8761 0 5.0591-0.92691 6.5664-2.7894 1.4727-1.8105 2.2089-4.3747 2.2089-7.7098m4.47-0.15604c0 4.3401-1.23 7.8225-3.6729 10.447-2.443 2.6162-5.7435 3.9329-9.893 3.9329-4.0888 0-7.3288-1.3167-9.7283-3.9329-2.3389-2.5382-3.5084-5.882-3.5084-10.023 0-4.7386 1.3341-8.3942 3.9935-10.984 2.4602-2.4082 5.752-3.6124 9.8842-3.6124 4.0628 0 7.2248 1.2561 9.503 3.777 2.2783 2.5122 3.4218 5.9773 3.4218 10.395"/>
    <path d="m949.37 411.42c-0.84902-0.47646-1.8192-0.71898-2.902-0.71898-3.0407 0-4.5654 1.9231-4.5654 5.7694v4.2014h6.3758v3.699h-6.3758v23.519h-4.3661v-23.519h-4.6258v-3.699h4.6258v-4.4094c0-2.9973 0.9357-5.3449 2.7895-7.0515 1.6026-1.464 3.5604-2.2004 5.882-2.2004 1.3426 0 2.3996 0.15605 3.1619 0.47648"/>
    <path d="m966.58 447.62c-1.0308 0.58904-2.391 0.87493-4.0975 0.87493-4.7472 0-7.1208-2.6681-7.1208-8.0217v-16.113h-4.678v-3.699h4.678v-6.6443c1.3773-0.44202 2.8327-0.90957 4.3574-1.4034v8.0477h6.8608v3.699h-6.8608v15.368c0 1.8278 0.31147 3.1186 0.93558 3.8896 0.61495 0.77096 1.6546 1.1608 3.1098 1.1608 1.0742 0 2.0184-0.29433 2.8154-0.88358"/>
   </g>
  </g>
  <g transform="matrix(.11167 0 0 .11167 -18.933 703.62)">
   <path d="m458.6 394.27-75.344 24.57-65.501 28.932-18.35 4.8497c-4.6522 4.4221-9.5894 8.9136-14.847 13.489-5.7795 5.0292-11.215 9.5869-15.348 12.881-4.6021 3.6681-11.445 10.458-14.942 14.811-5.2035 6.4772-9.2726 13.384-11.022 18.696-3.1476 9.5566-1.614 19.236 4.4565 28.169 7.7545 11.411 23.192 23.005 41.145 30.898 9.158 4.0259 24.612 9.2159 36.2 12.142 19.312 4.8767 56.635 10.175 77.191 10.963 4.1688 0.15961 9.7185 0.14463 9.9736-0.0239 0.45112-0.29796 3.6511-6.3571 7.364-13.942 12.633-25.806 21.773-49.999 26.691-70.661 2.9781-12.511 5.2999-29.194 6.8039-48.974 0.42127-5.5409 0.57398-24.021 0.25021-30.302-0.52681-10.221-1.4271-18.552-2.8717-26.727-0.21192-1.1983-0.2899-2.252-0.17875-2.3474 0.20949-0.17982 0.92112-0.40813 10.176-3.0981l-1.8469-4.3254zm-17.218 10.105c0.68472 0 2.5055 17.461 2.979 28.538 0.10059 2.3538 0.0803 3.8607-0.0596 3.8607-0.44971 0-9.6489-5.4019-16.17-9.4969-5.6946-3.5762-16.501-10.757-18.219-12.106-0.5421-0.42568-0.48483-0.44647 4.1706-2.0495 7.9209-2.7275 26.701-8.7462 27.299-8.7462zm-38.381 12.595c0.48681-0.001 1.8124 0.73048 4.9451 2.693 11.752 7.3618 27.665 16.219 34.484 19.196 2.1144 0.92325 2.3558 0.5655-2.5142 3.8726-10.381 7.0493-23.286 13.981-39.132 21.019-2.7616 1.2268-5.101 2.2282-5.1953 2.2282s0.21392-1.4008 0.67918-3.1219c3.8385-14.199 6.0045-28.531 6.0651-40.025 0.0301-5.6846 0.0316-5.7147 0.57196-5.8507 0.0253-0.006 0.0629-0.0118 0.0953-0.0119zm-7.9002 3.0147c0.34013 0.34166 0.0938 13.08-0.3217 16.551-0.99696 8.327-2.6262 16.028-5.2311 24.785-0.62244 2.0924-1.2059 3.896-1.2988 4.0037-0.22626 0.26232-8.0157-7.3273-10.605-10.331-4.4242-5.1322-7.9242-10.23-10.474-15.252-1.2959-2.5525-3.3624-7.5934-3.1696-7.7334 0.8751-0.63549 30.886-12.238 31.1-12.023zm-37.213 14.668c0.07 0.007 0.12445 0.026 0.15488 0.0596 0.11233 0.12377 0.50901 1.049 0.88177 2.0614 1.8144 4.9281 5.8943 12.249 9.4373 16.932 3.8681 5.1131 8.9113 10.561 13.131 14.18 1.355 1.1619 2.6191 2.2464 2.8002 2.407 0.36133 0.32029 0.48282 0.26599-8.8058 3.7892-10.765 4.0833-22.489 8.1722-35.95 12.524-5.1297 1.6582-9.4712 3.0594-9.6399 3.122-0.51274 0.19011-0.35549-0.12564 1.1439-2.4666 6.6884-10.442 16.821-30.868 22.485-45.316 0.98255-2.5058 1.9176-5.0154 2.0853-5.5766 0.24636-0.82434 0.48913-1.1047 1.2631-1.4537 0.4281-0.19306 0.80265-0.28315 1.0129-0.26216zm-11.403 4.7068c0.15153 0.1333-2.736 6.2314-5.5766 11.773-5.5097 10.748-11.584 21.325-19.649 34.234-1.3915 2.2273-2.6739 4.2636-2.8479 4.5161-0.28643 0.41579-0.40384 0.27877-1.2869-1.4776-1.9307-3.84-3.5483-8.685-4.385-13.191-0.82809-4.4594-0.68723-12.18 0.30981-16.968 0.74072-3.5575 0.70805-3.4789 2.3832-4.3374 7.2424-3.7118 30.817-14.757 31.053-14.549zm98.222 3.9918v2.4189c-0.0122 12.705-1.3683 30.098-3.3364 42.79-0.34535 2.2271-0.64441 4.0645-0.66728 4.0871-0.0227 0.0225-1.6281-0.44795-3.5628-1.0486-8.5489-2.654-17.817-6.6188-26.179-11.201-5.5374-3.0344-13.546-7.9498-13.322-8.1742 0.061-0.061 2.4199-1.3111 5.243-2.7764 11.181-5.8038 21.862-12.061 31.148-18.267 3.484-2.3285 8.6969-6.0974 9.8544-7.1137l0.82217-0.71494zm-141.23 16.837c0.23214-0.0112 0.1732 0.42939-0.19065 2.5262-0.25296 1.4582-0.5389 4.2128-0.64341 6.1128-0.45803 8.3278 0.89248 14.472 5.0284 22.878 1.1499 2.3373 2.0494 4.2856 2.0018 4.3254-0.41409 0.34663-38.075 11.367-49.915 14.609-3.5098 0.9609-6.5773 1.8074-6.8277 1.8827-0.41085 0.12367-0.44746 0.0342-0.29791-0.92944 1.2969-8.355 7.6702-19.321 16.575-28.526 5.9201-6.1202 10.66-9.7454 18.72-14.347 5.7842-3.3022 14.768-8.2581 15.431-8.5079 0.0446-0.0168 0.086-0.0222 0.11912-0.0238zm88.832 15.908c0.0358-0.0428 1.431 0.70411 3.0981 1.6682 12.165 7.0351 29.139 13.634 43.612 16.944l1.3107 0.2979-1.7993 1.0009c-7.5601 4.1951-32.457 14.554-57.887 24.094-3.7122 1.3926-7.3345 2.758-8.0432 3.0385-0.7087 0.28053-1.2869 0.47289-1.2869 0.41705 0-0.0558 1.0489-2.0746 2.3355-4.4803 7.1388-13.348 14.265-29.569 17.921-40.824 0.3728-1.1474 0.70293-2.1139 0.73878-2.1568zm-9.056 2.967c0.0391 0.0391-0.40567 1.2348-0.98903 2.6453-4.9628 12.001-11.465 25.093-19.756 39.799-2.11 3.7426-3.8886 6.7982-3.956 6.792-0.0675-0.006-1.7836-1.0216-3.8131-2.264-12.077-7.3934-22.762-16.494-29.778-25.345l-1.0009-1.2512 5.2072-1.4299c18.574-5.0882 34.325-10.53 49.987-17.278 2.2177-0.95556 4.06-1.7072 4.099-1.6682zm56.255 19.637c0.0267 0.006 0.0358 0.0242 0.0358 0.0477 0 1.266-2.873 12.981-5.2668 21.46-2.008 7.1125-3.6936 12.676-6.8158 22.533-1.379 4.3535-2.5628 7.9067-2.6334 7.8883s-0.40129-0.0819-0.73874-0.14299c-16.919-3.0619-32.073-7.3318-46.269-13.036-3.9715-1.5958-9.7065-4.1362-10.009-4.4327-0.10257-0.10046 3.3269-1.7161 7.6142-3.5867 25.927-11.312 52.79-24.194 61.974-29.718 1.1046-0.66438 1.9224-1.0513 2.1091-1.0128zm-129.86 4.4446c0.13903 0.1317-7.1133 10.513-17.242 24.69-3.5205 4.9272-7.656 10.735-9.1871 12.905-1.5311 2.1702-3.8471 5.6052-5.1595 7.638l-2.3951 3.6939-2.55-2.1448c-2.9921-2.5122-8.2294-7.8461-10.605-10.808-4.8889-6.0942-8.2015-12.508-9.5088-18.398-0.60353-2.7193-0.6213-4.105-0.0477-4.2778 0.82907-0.24969 16.038-3.8302 30.302-7.1376 7.923-1.8371 17.083-3.9876 20.364-4.7782 3.2813-0.79064 5.9974-1.4126 6.0294-1.3822zm7.2925 2.7883 1.835 2.0495c8.204 9.1391 16.547 15.959 26.727 21.842 1.7973 1.0386 3.1672 1.9416 3.0504 2.0138-0.42371 0.26188-35.202 12.627-51.286 18.231-9.0707 3.1604-16.522 5.7374-16.563 5.7315-0.0412-0.006-0.55495-0.34204-1.132-0.7507l-1.0486-0.75069 1.6443-2.3712c5.3365-7.7301 12.041-16.231 26.715-33.889l10.057-12.106zm45.447 32.482c0.0403-0.0502 2.583 0.85126 5.66 2.0018 7.4171 2.7734 13.238 4.5822 21.115 6.5537 9.6743 2.4214 23.655 4.8429 31.934 5.5408 1.271 0.10713 1.9198 0.25218 1.7159 0.3813-0.38436 0.2434-8.7674 3.0434-14.93 4.9808-9.7832 3.0754-39.681 11.908-64.059 18.922-4.5222 1.3012-8.3888 2.4006-8.5913 2.4428-0.54602 0.11356-2.4546-0.38739-2.4546-0.64346 0-0.12171 1.3669-1.8517 3.0266-3.8369 8.194-9.8012 16.334-20.748 23.129-31.1 1.8584-2.8314 3.4154-5.1928 3.4555-5.243zm-10.069 0.28597c0.0733 0.0733-3.9659 6.541-11.07 17.731-2.9995 4.7247-6.4008 10.103-7.5666 11.952-1.1657 1.8487-2.8738 4.658-3.7892 6.2558l-1.6682 2.9074-0.846-0.2264c-2.0414-0.55268-16.441-5.6396-20.245-7.1495-4.7145-1.8713-9.6276-4.1311-13.25-6.089-4.5271-2.4466-10.269-6.0772-9.8186-6.2201 0.12961-0.0411 7.9199-2.1732 17.302-4.7306 24.958-6.8031 38.763-10.711 47.818-13.536 1.6919-0.52784 3.1015-0.92606 3.1339-0.89369zm70.887 16.623c0.0537-0.0117 0.0787-0.0119 0.0834 0 0.23607 0.5903-9.0034 26.181-12.381 34.294-0.75635 1.8171-1.0362 2.2573-1.4299 2.2402-0.9559-0.0417-14.353-1.9148-22.461-3.1458-14.194-2.1548-37.97-6.3067-43.969-7.6738l-1.3942-0.30982 8.5079-1.9184c18.236-4.1087 26.994-6.3123 35.878-9.0322 11.205-3.4303 22.301-7.7071 33.507-12.917 1.7717-0.82362 3.2819-1.4554 3.6581-1.5371z" fill="url(#b)"/>
   <path d="m380.95 218.68c-1.26-0.14711-21.481 7.1381-34.472 12.416-17.604 7.1519-31.272 14.004-39.703 19.923-3.1385 2.2031-7.085 6.1653-7.6619 7.6857-0.21586 0.56896-0.31713 1.2339-0.32172 1.9184l7.6499 7.221 18.148 5.7911 43.231 7.7214 49.415 8.496 0.50046-4.242c-0.14949-0.0236-0.29096-0.0479-0.44088-0.0715l-6.506-1.0248-1.3226-2.3236c-6.716-11.851-14.138-26.515-18.446-36.439-3.3363-7.6852-6.54-16.538-8.3172-22.95-1.0555-3.8079-1.1654-4.0544-1.7516-4.1229zm-0.95327 2.9313c0.0503-0.009 0.0756-0.009 0.0834 0 0.0399 0.0478 0.26953 1.6372 0.50047 3.5271 0.97258 7.9592 2.7536 15.678 5.5408 23.987 2.1003 6.2607 2.1304 5.893-0.36939 5.1953-5.8106-1.6217-31.845-6.0906-50.678-8.6985-3.0345-0.42022-5.5602-0.79391-5.6004-0.83411-0.23912-0.23912 13.582-7.4804 19.709-10.331 7.8581-3.6561 29.256-12.565 30.814-12.845zm-54.872 25.488 2.2044 0.75069c12.091 4.1158 42.398 9.905 59.15 11.296 1.8899 0.15694 3.4789 0.32531 3.5271 0.36939 0.0482 0.0441-1.5573 0.9019-3.5628 1.9065-8.0813 4.0482-16.976 8.9823-23.129 12.833-1.8069 1.1309-3.464 2.0431-3.682 2.0257-0.21796-0.0174-1.4096-0.20881-2.6572-0.41705l-2.2759-0.36939-5.7196-5.5528c-10.041-9.7181-17.88-17.236-20.912-20.078l-2.9432-2.7645zm-2.2402 1.7874 8.0074 9.9974c4.4081 5.4988 8.8258 10.956 9.8067 12.13 0.98087 1.1744 1.7397 2.1696 1.692 2.2044-0.22722 0.16621-11.605-2.0491-17.635-3.4318-6.1903-1.4194-8.7506-2.0989-12.583-3.3245l-3.1219-1.0009 0.0119-0.77453c0.0397-3.8404 4.8802-9.5048 13.095-15.3l0.72687-0.50046zm68.194 13.62c0.24018 0.0186 0.49382 0.50672 1.2035 2.0614 1.9422 4.2547 7.9877 15.786 9.4492 18.017 0.48133 0.73461 1.2444 0.78378-6.7801-0.51237-19.285-3.115-25.524-4.1577-25.524-4.2778 0.00013-0.0732 0.57835-0.45199 1.2869-0.84602 5.9721-3.3211 11.998-7.5013 17.361-12.023 1.2824-1.0811 2.5147-2.1112 2.7406-2.2997 0.0929-0.0775 0.18209-0.12534 0.26215-0.11916z" fill="url(#c)"/>
   <path d="m299.45 257.94s-1.2513 1.9839-0.0715 4.9331c0.73004 1.8249 2.9223 4.0171 5.3383 6.3392 0 0 25.307 24.686 28.407 28.264 14.022 16.183 20.111 32.115 20.674 54.11 0.36094 14.115-2.3613 26.522-8.9726 40.943-11.85 25.846-36.818 54.349-75.379 86.044l5.66-1.8708c3.6381-2.7255 8.5787-5.6364 20.233-12.011 26.84-14.681 56.98-28.185 94.004-42.099 53.268-20.018 140.89-43.506 190.75-51.143l5.1953-0.79838-0.79836-1.2511c-4.5588-7.086-7.6706-11.455-11.415-16.086-10.935-13.523-24.174-24.557-40.395-33.638-22.29-12.479-51.2-22.177-87.748-29.444-6.9093-1.3738-22.04-3.9676-34.353-5.8864-26.082-4.0646-42.904-6.8093-61.486-10.045-6.662-1.1559-16.609-2.8263-23.212-4.2539-3.4407-0.74389-9.9795-2.2901-15.062-4.0395-4.1956-1.6519-10.104-3.2488-11.368-8.067zm14.668 14.239c0.0355-0.0321 0.98602 0.26199 2.1448 0.65539 2.1357 0.72497 4.9539 1.5737 8.2338 2.4904 2.2978 0.6422 4.8242 1.316 7.507 2.0019 3.4241 0.8754 6.2554 1.6275 6.2915 1.6682 0.37906 0.42623 6.1298 18.78 8.0909 25.822 0.7485 2.6878 1.3167 4.9272 1.2631 4.9808s-0.69158-0.936-1.4061-2.1925c-6.653-11.7-17.189-23.598-29.372-33.174-1.5186-1.1936-2.7525-2.207-2.7525-2.2521zm28.038 7.7453c0.29307-0.0202 1.5564 0.19127 3.0624 0.5243 9.702 2.1455 27.026 5.49 38.166 7.364 1.8561 0.31221 3.3841 0.64845 3.3841 0.75071 0 0.10223-0.69344 0.54081-1.5371 0.96517-1.8692 0.94025-9.4328 5.4676-11.963 7.1614-6.3175 4.2283-11.997 8.7541-16.134 12.869-1.6623 1.6536-3.0534 3.0028-3.0981 3.0028s-0.33532-0.96368-0.64345-2.1448c-2.0681-7.9271-6.3439-19.633-10.176-27.871-0.61668-1.3257-1.1201-2.4948-1.1201-2.5976 0-0.013 0.0175-0.021 0.0596-0.0236zm49.32 9.3778c0.32468 0.10822 0.93832 2.0232 2.0257 6.3273 2.0821 8.2416 3.0515 17.497 2.7287 26.06-0.0898 2.3829-0.24053 4.5957-0.33365 4.9212l-0.17871 0.59579-2.9432-0.95326c-6.0672-1.9394-15.98-4.8581-24.475-7.209-4.8259-1.3356-8.7819-2.5279-8.7819-2.6453 0-0.35278 7.0418-7.3928 10.069-10.069 5.7821-5.1116 21.338-17.212 21.889-17.028zm3.9203 0.56003c0.17559-0.16339 23.568 3.8872 34.198 5.9222 7.9236 1.5168 19.387 3.9176 20.078 4.2063 0.33353 0.13938-0.85283 0.78588-4.6591 2.5023-15.056 6.7894-26.209 12.849-37.296 20.269-2.9205 1.9544-5.3474 3.5509-5.3978 3.5509-0.0505 0-0.0938-1.6313-0.0953-3.6224-0.008-10.812-2.1662-21.725-6.1247-30.945-0.42603-0.99224-0.74572-1.843-0.70305-1.8827zm60.485 11.963c0.18112 0.18116-0.58615 4.794-1.2511 7.5189-2.0698 8.4807-7.5546 21.068-14.323 32.9-1.1927 2.0849-2.2594 3.8232-2.3832 3.8607-0.12377 0.0378-1.665-0.77282-3.4198-1.7993-6.6184-3.8711-14.112-7.5332-22.342-10.927-2.2948-0.94628-4.2494-1.7889-4.3493-1.8827-0.37531-0.35213 17.913-12.46 27.609-18.279 7.7552-4.6538 20.242-11.609 20.459-11.392zm4.3255 0.67922c0.52665 0 10.901 2.8284 16.265 4.4327 13.362 3.9962 28.775 9.6268 38.774 14.168l4.1586 1.8827-2.9313 0.67921c-24.466 5.6205-45.435 12.106-65.632 20.305-1.6782 0.68121-3.1386 1.2392-3.2411 1.2392-0.10249 0 0.43313-1.2975 1.1796-2.8836 6.0711-12.899 9.9923-26.435 11.01-37.928 0.0927-1.0461 0.28152-1.8946 0.41708-1.8946zm-103.12 23.701c0.16567-0.16366 8.0618 1.6864 12.369 2.8956 6.4734 1.8174 20.248 6.4267 20.257 6.7801 0 0.0687-1.5181 1.3921-3.3722 2.9432-7.4472 6.2305-14.631 12.745-23.236 21.055-2.551 2.4636-4.7187 4.4684-4.8259 4.4684-0.10715 0-0.15477-0.35964-0.0953-0.79837 1.2959-9.5661 1.0175-21.85-0.78644-34.353-0.22867-1.585-0.36724-2.9342-0.30981-2.9909zm166.27 0.15492c0.11842 0.11843-3.6634 6.0294-6.0175 9.4016-3.4348 4.9203-8.4136 11.38-19.756 25.643-5.9581 7.492-12.679 15.97-14.942 18.839-2.2638 2.8686-4.1636 5.2191-4.2182 5.2191-0.0545 0-0.78471-1.0273-1.6206-2.2759-6.3942-9.5523-13.982-17.943-23.033-25.476-1.6892-1.4057-3.5949-2.9473-4.2301-3.4198-0.63522-0.47247-1.1532-0.9096-1.1558-0.97709-0.006-0.15573 9.661-4.3018 17.04-7.3044 12.845-5.2272 30.402-11.486 43.54-15.514 6.9283-2.1241 14.289-4.24 14.394-4.1348zm4.3612 1.1439c0.20747-0.0423 1.5864 0.62499 3.2411 1.5729 13.837 7.9264 27.397 18.105 38.059 28.574 3.033 2.9778 10.453 10.696 10.343 10.76-0.0282 0.0164-2.591 0.21932-5.6958 0.4528-23.978 1.8034-54.635 6.9043-84.149 14.001-2.0046 0.48197-3.7374 0.88177-3.8488 0.88177s2.0827-2.2024 4.8736-4.8855c17.333-16.663 25.24-27.185 34.544-45.983 1.3856-2.7997 2.5605-5.215 2.6096-5.3621 0.003-0.009 0.01-0.009 0.0239-0.0118zm-126.73 12.99c0.79175 0.17768 8.1838 3.6173 13.763 6.4107 5.1019 2.5546 12.829 6.6687 13.215 7.0303 0.0484 0.0454-2.6737 1.4668-6.0532 3.1577-10.699 5.3529-19.864 10.408-29.432 16.253-2.7286 1.6668-5.0156 3.0386-5.0881 3.0386-0.2387 0-0.14463-0.20636 1.3822-3.0028 5.0954-9.3322 9.2057-20.474 11.57-31.362 0.21105-0.97183 0.46501-1.5653 0.64345-1.5252zm-7.4474 1.3346c0.15431 0.15431-1.7639 7.1999-2.979 10.963-2.3305 7.2166-6.2709 16.288-10.057 23.117-0.88917 1.6036-2.2534 3.951-3.0266 5.2191l-1.4061 2.2997-3.1934-3.0862c-3.7108-3.5975-6.7335-5.8315-10.593-7.8168-1.517-0.7803-2.7507-1.5025-2.7526-1.6086-0.007-0.46931 9.7083-9.3047 17.206-15.645 5.3672-4.5388 16.664-13.578 16.801-13.441zm45.256 18.612 2.7764 1.7993c6.3692 4.1353 13.911 9.6982 19.661 14.49 3.2224 2.6851 9.485 8.293 10.772 9.6518l0.69112 0.72688-4.6114 1.2869c-26.082 7.2364-46.232 13.678-69.743 22.318-2.6093 0.95887-4.8623 1.7516-5.0166 1.7516-0.32434 0-0.64669 0.29815 5.2191-5.1 15.038-13.839 28.323-29.087 38.25-43.922l2.0019-3.0028zm-11.892 2.979c0.13624 0.13623-7.7074 11.122-12.369 17.326-5.5765 7.4221-15.508 19.829-22.342 27.907-2.8551 3.3747-5.3011 6.175-5.4336 6.22-0.14531 0.0494-0.23564-0.77737-0.23831-2.0853-0.0133-6.8921-1.757-14.258-4.8378-20.495-1.3013-2.6344-1.5193-3.272-1.2512-3.5152 1.0722-0.9721 17.663-10.432 28.121-16.039 7.184-3.8513 18.214-9.4548 18.35-9.3182zm-71.924 17.623c0.14249 0 1.4733 0.66862 2.9551 1.4895 3.631 2.0115 6.8931 4.2246 9.771 6.6252 0.11104 0.0926-1.3792 1.3099-3.3126 2.7049-5.3967 3.8936-13.614 10.096-18.374 13.882-5.0217 3.9945-5.1882 4.117-4.6233 3.253 3.7607-5.7516 5.6515-9.008 7.6261-13.167 1.7554-3.6972 3.5047-8.086 4.7544-11.904 0.51915-1.5861 1.061-2.8836 1.2035-2.8836zm19.161 15.038c0.25925-0.0321 0.6282 0.45075 2.1687 2.7526 3.2466 4.8511 5.7328 11.32 6.375 16.587l0.13106 1.132-7.781 3.0147c-13.967 5.4202-26.824 10.763-35.509 14.74-2.4298 1.1126-6.7197 3.1622-9.5207 4.5638-2.801 1.4015-5.088 2.503-5.088 2.4427s1.759-1.3828 3.9084-2.9432c17.045-12.374 31.742-25.922 42.813-39.465 1.1842-1.4485 2.2597-2.7046 2.3951-2.7883 0.0359-0.0221 0.0702-0.0312 0.10722-0.0359zm-8.8415 2.1925c0.22547 0.22547-6.2892 7.5928-10.677 12.071-10.981 11.208-21.868 19.995-35.354 28.55-1.6874 1.0704-3.2293 2.0383-3.4318 2.1568-0.37021 0.21654 0.11969-0.3402 6.0413-6.792 3.7316-4.0657 6.5878-7.4408 9.8306-11.654 2.1355-2.7743 2.5434-3.1635 5.6719-5.4217 8.4272-6.0827 27.695-19.135 27.919-18.91z" fill="url(#a)"/>
  </g>
 </g>
</svg>
