<?xml version="1.0" encoding="UTF-8" standalone="no"?>
<svg
   xmlns:dc="http://purl.org/dc/elements/1.1/"
   xmlns:cc="http://creativecommons.org/ns#"
   xmlns:rdf="http://www.w3.org/1999/02/22-rdf-syntax-ns#"
   xmlns:svg="http://www.w3.org/2000/svg"
   xmlns="http://www.w3.org/2000/svg"
   xmlns:sodipodi="http://sodipodi.sourceforge.net/DTD/sodipodi-0.dtd"
   xmlns:inkscape="http://www.inkscape.org/namespaces/inkscape"
   width="200"
   height="50"
   viewBox="0 0 159.99999 40"
   xml:space="preserve"
   id="svg2"
   version="1.1"
   inkscape:version="0.91 r13725"
   sodipodi:docname="postgresql.svg"><metadata
     id="metadata34"><rdf:RDF><cc:Work
         rdf:about=""><dc:format>image/svg+xml</dc:format><dc:type
           rdf:resource="http://purl.org/dc/dcmitype/StillImage" /><dc:title></dc:title></cc:Work></rdf:RDF></metadata><defs
     id="defs32" /><sodipodi:namedview
     pagecolor="#ffffff"
     bordercolor="#666666"
     borderopacity="1"
     objecttolerance="10"
     gridtolerance="10"
     guidetolerance="10"
     inkscape:pageopacity="0"
     inkscape:pageshadow="2"
     inkscape:window-width="1920"
     inkscape:window-height="986"
     id="namedview30"
     showgrid="false"
     units="px"
     inkscape:zoom="2.3979678"
     inkscape:cx="147.89451"
     inkscape:cy="38.616706"
     inkscape:window-x="-11"
     inkscape:window-y="-11"
     inkscape:window-maximized="1"
     inkscape:current-layer="svg2" /><g
     id="orginal"
     style="clip-rule:nonzero;fill-rule:nonzero;stroke:#000000;stroke-miterlimit:4"
     transform="translate(0,-405.383)" /><g
     id="g4196"
     transform="translate(2.543608,0)"><g
       transform="matrix(0.07548593,0,0,0.07548593,-6.1035156e-6,3.200016)"
       style="clip-rule:nonzero;fill:none;fill-rule:nonzero;stroke:#ffffff;stroke-width:12.46510029;stroke-linecap:round;stroke-linejoin:round;stroke-miterlimit:4"
       id="Layer_x0020_3"><path
         inkscape:connector-curvature="0"
         id="path6"
         d="m 323.205,324.227 c 2.833,-23.601 1.984,-27.062 19.563,-23.239 l 4.463,0.392 c 13.517,0.615 31.199,-2.174 41.587,-7 22.362,-10.376 35.622,-27.7 13.572,-23.148 -50.297,10.376 -53.755,-6.655 -53.755,-6.655 C 401.746,185.774 423.948,85.741 404.784,61.255 352.514,-5.534 262.036,26.049 260.522,26.869 l -0.482,0.089 c -9.938,-2.062 -21.06,-3.294 -33.554,-3.496 -22.761,-0.374 -40.032,5.967 -53.133,15.904 0,0 -161.408,-66.498 -153.899,83.628 1.597,31.936 45.777,241.655 98.47,178.31 19.259,-23.163 37.871,-42.748 37.871,-42.748 9.242,6.14 20.307,9.272 31.912,8.147 l 0.897,-0.765 c -0.281,2.876 -0.157,5.689 0.359,9.019 -13.572,15.167 -9.584,17.83 -36.723,23.416 -27.457,5.659 -11.326,15.734 -0.797,18.367 12.768,3.193 42.305,7.716 62.268,-20.224 l -0.795,3.188 c 5.325,4.26 4.965,30.619 5.72,49.452 0.756,18.834 2.017,36.409 5.856,46.771 3.839,10.36 8.369,37.05 44.036,29.406 29.809,-6.388 52.6,-15.582 54.677,-101.107"
         style="fill:#000000;stroke:#000000;stroke-width:37.39530182;stroke-linecap:butt;stroke-linejoin:miter" /><path
         inkscape:connector-curvature="0"
         id="path8"
         d="m 402.395,271.23 c -50.302,10.376 -53.76,-6.655 -53.76,-6.655 53.111,-78.808 75.313,-178.843 56.153,-203.326 -52.27,-66.785 -142.752,-35.2 -144.262,-34.38 l -0.486,0.087 c -9.938,-2.063 -21.06,-3.292 -33.56,-3.496 -22.761,-0.373 -40.026,5.967 -53.127,15.902 0,0 -161.411,-66.495 -153.904,83.63 1.597,31.938 45.776,241.657 98.471,178.312 19.26,-23.163 37.869,-42.748 37.869,-42.748 9.243,6.14 20.308,9.272 31.908,8.147 l 0.901,-0.765 c -0.28,2.876 -0.152,5.689 0.361,9.019 -13.575,15.167 -9.586,17.83 -36.723,23.416 -27.459,5.659 -11.328,15.734 -0.796,18.367 12.768,3.193 42.307,7.716 62.266,-20.224 l -0.796,3.188 c 5.319,4.26 9.054,27.711 8.428,48.969 -0.626,21.259 -1.044,35.854 3.147,47.254 4.191,11.4 8.368,37.05 44.042,29.406 29.809,-6.388 45.256,-22.942 47.405,-50.555 1.525,-19.631 4.976,-16.729 5.194,-34.28 l 2.768,-8.309 c 3.192,-26.611 0.507,-35.196 18.872,-31.203 l 4.463,0.392 c 13.517,0.615 31.208,-2.174 41.591,-7 22.358,-10.376 35.618,-27.7 13.573,-23.148 z"
         style="fill:#336791;stroke:none" /><path
         inkscape:connector-curvature="0"
         id="path10"
         d="m 215.866,286.484 c -1.385,49.516 0.348,99.377 5.193,111.495 4.848,12.118 15.223,35.688 50.9,28.045 29.806,-6.39 40.651,-18.756 45.357,-46.051 3.466,-20.082 10.148,-75.854 11.005,-87.281" /><path
         inkscape:connector-curvature="0"
         id="path12"
         d="m 173.104,38.256 c 0,0 -161.521,-66.016 -154.012,84.109 1.597,31.938 45.779,241.664 98.473,178.316 19.256,-23.166 36.671,-41.335 36.671,-41.335" /><path
         inkscape:connector-curvature="0"
         id="path14"
         d="m 260.349,26.207 c -5.591,1.753 89.848,-34.889 144.087,34.417 19.159,24.484 -3.043,124.519 -56.153,203.329" /><path
         inkscape:connector-curvature="0"
         id="path16"
         d="m 348.282,263.953 c 0,0 3.461,17.036 53.764,6.653 22.04,-4.552 8.776,12.774 -13.577,23.155 -18.345,8.514 -59.474,10.696 -60.146,-1.069 -1.729,-30.355 21.647,-21.133 19.96,-28.739 -1.525,-6.85 -11.979,-13.573 -18.894,-30.338 -6.037,-14.633 -82.796,-126.849 21.287,-110.183 3.813,-0.789 -27.146,-99.002 -124.553,-100.599 -97.385,-1.597 -94.19,119.762 -94.19,119.762"
         style="stroke-linejoin:bevel" /><path
         inkscape:connector-curvature="0"
         id="path18"
         d="m 188.604,274.334 c -13.577,15.166 -9.584,17.829 -36.723,23.417 -27.459,5.66 -11.326,15.733 -0.797,18.365 12.768,3.195 42.307,7.718 62.266,-20.229 6.078,-8.509 -0.036,-22.086 -8.385,-25.547 -4.034,-1.671 -9.428,-3.765 -16.361,3.994 z" /><path
         inkscape:connector-curvature="0"
         id="path20"
         d="m 187.715,274.069 c -1.368,-8.917 2.93,-19.528 7.536,-31.942 6.922,-18.626 22.893,-37.255 10.117,-96.339 -9.523,-44.029 -73.396,-9.163 -73.436,-3.193 -0.039,5.968 2.889,30.26 -1.067,58.548 -5.162,36.913 23.488,68.132 56.479,64.938" /><path
         inkscape:connector-curvature="0"
         id="path22"
         d="m 172.517,141.7 c -0.288,2.039 3.733,7.48 8.976,8.207 5.234,0.73 9.714,-3.522 9.998,-5.559 0.284,-2.039 -3.732,-4.285 -8.977,-5.015 -5.237,-0.731 -9.719,0.333 -9.996,2.367 z"
         style="fill:#ffffff;stroke-width:4.15500021;stroke-linecap:butt;stroke-linejoin:miter" /><path
         inkscape:connector-curvature="0"
         id="path24"
         d="m 331.941,137.543 c 0.284,2.039 -3.732,7.48 -8.976,8.207 -5.238,0.73 -9.718,-3.522 -10.005,-5.559 -0.277,-2.039 3.74,-4.285 8.979,-5.015 5.239,-0.73 9.718,0.333 10.002,2.368 z"
         style="fill:#ffffff;stroke-width:2.0775001;stroke-linecap:butt;stroke-linejoin:miter" /><path
         inkscape:connector-curvature="0"
         id="path26"
         d="m 350.676,123.432 c 0.863,15.994 -3.445,26.888 -3.988,43.914 -0.804,24.748 11.799,53.074 -7.191,81.435" /><path
         inkscape:connector-curvature="0"
         id="path28"
         d="M 0,60.232"
         style="stroke-width:3" /></g><g
       transform="matrix(0.3109904,0,0,0.3109904,48.073863,-6.9811511)"
       id="g4192"><path
         style="fill:#000000"
         d="m 110.23884,122.55667 c -6.93542,-0.91226 -9.98069,-3.26359 -11.254248,-8.68972 l -0.15489,-0.66 2.360728,0 2.36076,0 0.40625,1.26 c 1.29629,4.02042 4.45342,5.47102 11.92913,5.48108 7.22714,0.01 10.66853,-1.48191 12.64557,-5.48109 l 0.9067,-1.83408 0.0842,-4.03553 0.0843,-4.03552 -1.34932,1.29647 c -2.5351,2.43583 -6.46623,3.84654 -11.53918,4.14093 -5.0046,0.29042 -10.14936,-0.7462 -13.34856,-2.68961 -2.72806,-1.65721 -4.796238,-4.62708 -5.601628,-8.043816 -0.46737,-1.982832 -0.46781,-6.133037 0,-8.114088 1.69993,-7.211565 9.181158,-11.366582 19.284048,-10.710192 4.88451,0.31735 7.72594,1.392915 10.40648,3.939176 0.98793,0.938448 1.86472,1.70627 1.94839,1.70627 0.0837,0 0.15211,-1.08 0.15211,-2.4 l 0,-2.4 2.28,0 2.28,0 -0.004,15.18 c -0.003,12.69116 -0.063,15.4321 -0.366,16.71766 -1.2036,5.10615 -5.11529,8.19196 -11.75045,9.2696 -2.31825,0.3765 -9.21941,0.43663 -11.76,0.10246 z m 10.02886,-15.94321 c 4.7016,-0.99626 8.12683,-4.21448 9.02364,-8.478326 0.87537,-4.161945 -0.19392,-8.45813 -2.73917,-11.005252 -2.51023,-2.512073 -5.60182,-3.528958 -10.67333,-3.51067 -5.10574,0.01841 -8.15664,1.040684 -10.74994,3.602019 -4.31265,4.259515 -4.1152,12.734543 0.39092,16.778269 1.04894,0.94131 3.8766,2.19447 5.79902,2.57002 2.35462,0.45998 6.88056,0.48221 8.94886,0.0439 z m -104.355575,4.66343 c -4.336639,-0.5671 -7.3680865,-1.95028 -9.9573285,-4.54328 -1.96519,-1.96805 -3.037349,-3.82286 -3.759591,-6.504 -0.552902,-2.052506 -0.553831,-6.490848 -0.0017,-8.572181 1.4663,-5.528366 5.377373,-9.106761 11.6621885,-10.670203 1.70359,-0.423792 2.795357,-0.514718 6.263239,-0.521618 4.409969,-0.0088 5.711249,0.167428 8.910576,1.206585 6.740311,2.18928 10.357762,7.757448 9.962472,15.334757 -0.217241,4.16426 -1.485415,7.23194 -4.022244,9.72969 -1.485804,1.46291 -4.227835,3.03436 -6.450804,3.69694 -3.246758,0.96772 -8.809718,1.33985 -12.606713,0.84331 z m 10.470142,-3.63766 c 3.971767,-1.30272 6.564485,-3.88646 7.538402,-7.51228 0.475219,-1.769206 0.540495,-6.026787 0.119971,-7.825294 -1.005252,-4.299307 -3.856226,-7.067445 -8.521802,-8.274204 -2.360681,-0.610593 -8.012042,-0.617083 -10.2,-0.01171 -4.391566,1.21507 -7.4636665,4.174387 -8.5121015,8.199603 -0.474727,1.822595 -0.474936,5.599816 -4.8e-4,7.421641 1.104259,4.239534 4.0399075,7.075844 8.5994035,8.308414 1.432169,0.38716 2.323174,0.44907 5.433111,0.37751 3.168413,-0.0729 3.990372,-0.17427 5.543429,-0.68367 z m 27.216571,3.63831 c -7.800391,-0.79392 -11.35669,-3.36082 -12.206599,-8.81059 l -0.159075,-1.02 2.490216,0 2.490214,0 0.148135,1.08076 c 0.600106,4.37823 5.043377,6.35171 13.597109,6.03915 5.050284,-0.18455 7.701624,-1.01417 9.214409,-2.88327 0.680537,-0.84082 0.745591,-1.07271 0.745591,-2.6576 0,-1.54531 -0.07642,-1.8366 -0.69433,-2.64672 -1.217822,-1.596646 -2.369131,-1.937376 -9.752671,-2.886328 -10.721849,-1.377996 -13.114404,-1.94944 -15.063523,-3.59782 -1.742921,-1.473999 -2.443385,-4.615147 -1.643066,-7.368144 1.062813,-3.655954 4.52807,-5.379175 12.064725,-5.999614 7.255231,-0.597273 13.286779,0.657984 16.239468,3.379678 1.223525,1.127803 2.203488,3.128443 2.449087,4.999908 l 0.165353,1.26 -2.374505,0 -2.374502,0 -0.28771,-1.392955 c -0.670932,-3.248333 -3.017882,-4.767154 -8.29926,-5.370843 -2.924956,-0.334336 -7.209079,0.02485 -9.492074,0.795831 -1.897543,0.640809 -3.502426,2.113209 -3.751709,3.442008 -0.316536,1.687279 0.0063,2.802451 1.091883,3.771518 1.615646,1.442258 3.257421,1.812029 12.602834,2.838473 7.479358,0.821488 10.676208,1.827386 12.541193,3.946122 1.135308,1.28978 1.498807,2.414296 1.498807,4.636716 0,3.15783 -1.962396,5.77441 -5.28,7.04015 -3.454212,1.31787 -10.61489,1.9476 -15.96,1.40357 z m 118.920002,-0.0998 c -7.27274,-1.19684 -12.12442,-5.20851 -13.68672,-11.317096 -0.9167,-3.584287 -0.53172,-7.874023 0.99346,-11.069755 0.89272,-1.870545 3.25195,-4.434043 5.11188,-5.554492 5.907,-3.558487 16.34676,-3.829265 22.77842,-0.590808 2.22533,1.12049 4.83686,3.688248 5.9059,5.806884 0.88454,1.753032 1.56201,4.239396 1.79133,6.574447 l 0.1591,1.62 -16.19251,0 c -8.9059,0 -16.24748,0.08889 -16.3146,0.197527 -0.27864,0.450852 0.39331,3.578653 1.0762,5.009563 2.0348,4.26351 6.5718,6.57767 12.93754,6.59895 6.27881,0.021 10.20953,-1.91416 12.1345,-5.974 l 0.7055,-1.48795 2.44325,-0.012 2.44325,-0.0121 -0.20338,0.70911 c -0.42074,1.46708 -1.82945,3.71882 -3.15708,5.04645 -1.74408,1.74408 -4.51356,3.20266 -7.59233,3.99859 -2.94321,0.7609 -8.19835,0.97264 -11.33371,0.45667 z m 18.11554,-18.07082 c -0.69036,-4.249219 -4.19072,-7.828654 -9.12809,-9.334303 -2.24626,-0.684996 -7.3345,-0.621555 -9.70745,0.121032 -0.99,0.309809 -2.124,0.726605 -2.52,0.926213 -1.50674,0.759491 -3.2009,2.23847 -4.07827,3.56027 -0.93891,1.41455 -2.02774,4.133978 -2.03667,5.086788 l -0.005,0.54 13.81087,0 13.81087,0 -0.1462,-0.9 z M 88.158838,110.82216 c -3.22855,-0.52757 -4.514914,-1.24593 -5.4,-3.01559 l -0.6,-1.19965 -0.06906,-11.092685 -0.06905,-11.092687 -2.930947,-0.06731 -2.930945,-0.06731 -0.07145,-1.5 -0.07145,-1.5 3.01145,0 3.011453,0 0,-4.8 0,-4.8 2.28,0 2.28,0 0,4.8 0,4.8 3.960003,0 3.96,0 0,1.56 0,1.56 -3.96719,0 -3.967184,0 0.06718,10.662662 c 0.06544,10.38551 0.08022,10.68026 0.568769,11.34 0.862975,1.16535 1.626399,1.39734 4.598475,1.39734 l 2.70006,0 -6e-5,1.35432 c -4e-5,0.99641 -0.0975,1.3917 -0.36863,1.49576 -0.65998,0.25325 -4.760554,0.36629 -5.991428,0.16516 z m -126.301243,-22.51524 0.06124,-22.26 15.24,0.0017 15.2399999,0.0017 1.9577736,0.661726 c 5.51436503,1.863845 8.475132,6.033266 8.475132,11.934883 0,6.256941 -3.41586717,10.459944 -9.9908376,12.29308 -1.7960448,0.500746 -2.42232,0.528636 -13.7020679,0.610188 l -11.82,0.08546 0,9.465633 0,9.46563 -2.761243,0 -2.761243,0 0.06124,-22.259991 z m 29.8996005,-0.997061 c 1.9070832,-0.702622 3.3011064,-1.751182 4.2983808,-3.23316 1.0312248,-1.532433 1.3419552,-2.736381 1.3394448,-5.189779 -0.0037,-3.621072 -1.097088,-5.981978 -3.5279376,-7.617763 -2.3616744,-1.589232 -2.4151464,-1.595208 -15.0882455,-1.685897 l -11.46,-0.08201 0,9.265668 0,9.265668 11.46,-0.08166 c 11.3077751,-0.08058 11.4801695,-0.08909 12.9783575,-0.641067 z m 147.4016445,8.617061 0,-14.64 2.27213,0 2.27215,0 0.0679,2.7 0.0679,2.7 0.8225,-1.517023 c 1.05593,-1.947507 2.51734,-3.230093 4.41171,-3.871853 1.78128,-0.603454 5.3676,-1.026163 7.84579,-0.92477 l 1.8,0.07365 0.0703,1.871698 0.0703,1.871697 -2.35716,-0.162345 c -5.54028,-0.381581 -9.5899,1.436555 -11.36441,5.102236 -1.18843,2.454975 -1.25151,3.036163 -1.35617,12.49672 l -0.0989,8.94 -2.262,0 -2.262,0 0,-14.640006 z"
         id="path4188"
         inkscape:connector-curvature="0"
         sodipodi:nodetypes="cccccscscccsssscsssscccccscccsssssscccsscsssssscccssssscssccsscccssssssssssscccsssssssssscsssssscsccssccccsscccsssccccccccscccccccccccccccccccccssscscccccccsssscccccccssssscccsscccccccsscccsssccccc" /><path
         sodipodi:nodetypes="ccsssscsssccscsscsccccscsssssssscccssccccssssssscsscccsssssssssssccccccccccccccc"
         inkscape:connector-curvature="0"
         id="path4190"
         d="m 292.785,111.73686 -4.16038,-2.88915 -1.36555,0.59223 c -3.327,1.44288 -7.56055,2.08765 -13.69394,2.08559 -9.19354,-0.003 -15.5641,-1.98758 -20.76629,-6.46889 -3.05808,-2.63432 -5.56627,-6.672746 -6.63914,-10.68969 -0.76421,-2.86129 -0.77379,-9.206484 -0.0185,-12.192324 1.28647,-5.08507 4.32012,-9.478493 8.55835,-12.394459 1.69855,-1.168644 5.32949,-2.819354 7.67229,-3.488023 4.80353,-1.37099 13.17516,-1.711843 18.42792,-0.750298 10.58124,1.936952 17.58245,8.174388 19.5588,17.425104 0.56156,2.628345 0.56367,8.217312 0.004,10.707703 -1.07481,4.783411 -3.39163,8.584757 -6.94716,11.398597 l -1.14326,0.90479 1.50326,1.06272 c 0.8268,0.5845 2.61027,1.79548 3.96327,2.69106 1.353,0.89558 2.44694,1.69286 2.43101,1.77173 -0.0161,0.0789 -0.74799,0.81368 -1.62675,1.63293 l -1.59773,1.48953 -4.16037,-2.88915 z m -15.38616,-3.81758 c 9.17386,-1.18669 15.47232,-6.21996 17.55958,-14.03233 0.74124,-2.774319 0.73855,-8.530397 -0.005,-11.266075 -0.81819,-3.00918 -2.0312,-5.200685 -4.08996,-7.389182 -3.13935,-3.337138 -6.15713,-5.087484 -10.75068,-6.235493 -2.88622,-0.721313 -10.15402,-0.781863 -13.26992,-0.110551 -4.54272,0.978717 -7.80772,2.694242 -10.83492,5.692987 -1.75579,1.739292 -2.23689,2.397064 -3.15974,4.32 -1.24356,2.591176 -1.83137,4.927392 -2.01996,8.028314 -0.24732,4.066692 0.73656,8.445888 2.58926,11.524764 3.08228,5.122176 9.38825,8.816166 16.3016,9.549336 1.75747,0.18637 5.95233,0.14172 7.68,-0.0818 z m -60.12,3.43934 c -7.84848,-0.71626 -13.70503,-3.5573 -15.92707,-7.72627 -0.92803,-1.74117 -1.71293,-4.684666 -1.71293,-6.423821 l 0,-1.281609 2.76,0 2.76,0 0.006,1.02 c 0.0211,3.652 2.36882,7.22994 5.92078,9.02296 5.37799,2.7148 16.89698,2.887 22.36644,0.33437 2.8674,-1.33824 4.14312,-3.42472 4.2996,-7.032166 0.12316,-2.8399 -0.39341,-4.287289 -2.05083,-5.746203 -1.82112,-1.603028 -4.54157,-2.354477 -14.35994,-3.966555 -8.8278,-1.449437 -13.35569,-2.564553 -15.59016,-3.83952 -1.33632,-0.76248 -3.1506,-2.763796 -3.72922,-4.113633 -1.19671,-2.791817 -1.1442,-6.827138 0.1249,-9.59923 2.19324,-4.790431 8.3123,-7.040023 19.1495,-7.040023 12.89338,0 19.70599,3.866259 20.54071,11.657179 l 0.19102,1.782821 -2.80094,0 -2.80095,0 -0.12761,-1.407218 c -0.381,-4.201839 -3.59695,-7.068031 -9.24031,-8.235389 -2.03498,-0.420943 -2.9622,-0.468742 -7.13875,-0.368004 -6.52601,0.157406 -9.11779,0.841358 -11.24352,2.967096 -1.45584,1.455845 -1.9074,2.546808 -2.02656,4.896058 -0.13054,2.573702 0.43159,4.085488 2.04823,5.508496 1.85235,1.6305 4.38538,2.330883 15.15631,4.190695 7.25012,1.251869 8.75849,1.57495 11.42554,2.447203 2.66297,0.870927 4.07002,1.620243 5.42846,2.890923 2.20899,2.066241 3.22769,5.644144 2.65529,9.32593 -0.9461,6.08569 -5.94974,9.63804 -14.99649,10.64681 -2.13596,0.23817 -8.8615,0.29222 -11.08726,0.0891 z m 87.48,-23.1117 0,-22.32 2.52,0 2.52,0 0,20.52 0,20.52 16.68,0 16.68,0 0,1.8 0,1.8 -19.2,0 -19.2,0 z"
         style="fill:#336791;fill-opacity:1" /></g></g></svg>