<?xml version="1.0" encoding="UTF-8" standalone="no"?>
<!-- Created with Inkscape (http://www.inkscape.org/) -->

<svg
   xmlns:dc="http://purl.org/dc/elements/1.1/"
   xmlns:cc="http://creativecommons.org/ns#"
   xmlns:rdf="http://www.w3.org/1999/02/22-rdf-syntax-ns#"
   xmlns:svg="http://www.w3.org/2000/svg"
   xmlns="http://www.w3.org/2000/svg"
   xmlns:sodipodi="http://sodipodi.sourceforge.net/DTD/sodipodi-0.dtd"
   xmlns:inkscape="http://www.inkscape.org/namespaces/inkscape"
   id="svg2"
   version="1.1"
   inkscape:version="0.91 r13725"
   xml:space="preserve"
   width="200"
   height="50"
   viewBox="0 0 200 50"
   sodipodi:docname="salesforce logo.svg"><metadata
     id="metadata8"><rdf:RDF><cc:Work
         rdf:about=""><dc:format>image/svg+xml</dc:format><dc:type
           rdf:resource="http://purl.org/dc/dcmitype/StillImage" /><dc:title></dc:title></cc:Work></rdf:RDF></metadata><defs
     id="defs6"><clipPath
       clipPathUnits="userSpaceOnUse"
       id="clipPath16"><path
         d="m 0,312.118 445.917,0 L 445.917,0 0,0 0,312.118 Z"
         id="path18"
         inkscape:connector-curvature="0" /></clipPath></defs><sodipodi:namedview
     pagecolor="#ffffff"
     bordercolor="#666666"
     borderopacity="1"
     objecttolerance="10"
     gridtolerance="10"
     guidetolerance="10"
     inkscape:pageopacity="0"
     inkscape:pageshadow="2"
     inkscape:window-width="1366"
     inkscape:window-height="705"
     id="namedview4"
     showgrid="false"
     inkscape:zoom="2.4195978"
     inkscape:cx="147.56647"
     inkscape:cy="3.9163727"
     inkscape:window-x="-8"
     inkscape:window-y="-8"
     inkscape:window-maximized="1"
     inkscape:current-layer="g10" /><g
     id="g10"
     inkscape:groupmode="layer"
     inkscape:label="logo-salesforce-vector"
     transform="matrix(1.25,0,0,-1.25,0,50.000007)"><g
       id="g12"
       transform="matrix(0.1179045,0,0,0.1179045,53.999976,1.5999702)"><g
         id="g14"
         clip-path="url(#clipPath16)"><g
           id="g20"
           transform="translate(185.5602,278.0783)"><path
             d="m 0,0 c 14.379,14.981 34.4,24.275 56.545,24.275 29.439,0 55.116,-16.411 68.794,-40.777 11.888,5.308 25.041,8.264 38.882,8.264 53.092,0 96.136,-43.418 96.136,-96.974 0,-53.564 -43.044,-96.982 -96.136,-96.982 -6.481,0 -12.812,0.656 -18.94,1.888 -12.039,-21.476 -34.99,-35.993 -61.335,-35.993 -11.023,0 -21.45,2.543 -30.743,7.078 -12.203,-28.718 -40.653,-48.857 -73.801,-48.857 -34.525,0 -63.951,21.843 -75.243,52.481 -4.935,-1.042 -10.053,-1.592 -15.296,-1.592 -41.104,0 -74.423,33.666 -74.423,75.197 0,27.839 14.962,52.14 37.211,65.143 -4.58,10.545 -7.123,22.171 -7.123,34.4 0,47.763 38.778,86.488 86.606,86.488 C -40.783,34.039 -15.827,20.69 0,0"
             style="fill:#2f9fd9;fill-opacity:1;fill-rule:nonzero;stroke:none"
             id="path22"
             inkscape:connector-curvature="0" /></g><g
           id="g24"
           transform="translate(64.583,150.2628)"><path
             d="m 0,0 c -0.282,-0.734 0.098,-0.885 0.19,-1.01 0.839,-0.609 1.684,-1.048 2.543,-1.54 4.548,-2.411 8.847,-3.112 13.337,-3.112 9.148,0 14.83,4.862 14.83,12.694 l 0,0.15 c 0,7.243 -6.416,9.877 -12.425,11.777 l -0.787,0.25 c -4.535,1.474 -8.447,2.746 -8.447,5.734 l 0,0.151 c 0,2.556 2.287,4.437 5.832,4.437 3.939,0 8.612,-1.311 11.62,-2.976 0,0 0.891,-0.57 1.212,0.288 0.177,0.466 1.698,4.562 1.862,5.008 0.17,0.478 -0.131,0.838 -0.446,1.028 -3.441,2.091 -8.192,3.52 -13.107,3.52 L 15.303,36.392 C 6.927,36.392 1.081,31.333 1.081,24.085 l 0,-0.151 c 0,-7.635 6.449,-10.119 12.492,-11.843 l 0.97,-0.301 c 4.404,-1.35 8.198,-2.517 8.198,-5.61 l 0,-0.158 C 22.741,3.192 20.27,1.081 16.299,1.081 14.752,1.081 9.83,1.107 4.515,4.469 3.873,4.85 3.506,5.118 3.008,5.42 2.746,5.584 2.091,5.865 1.802,5.007 L 0,0 Z"
             style="fill:#ffffff;fill-opacity:1;fill-rule:nonzero;stroke:none"
             id="path26"
             inkscape:connector-curvature="0" /></g><g
           id="g28"
           transform="translate(198.4912,150.2628)"><path
             d="m 0,0 c -0.282,-0.734 0.098,-0.885 0.19,-1.01 0.839,-0.609 1.684,-1.048 2.543,-1.54 4.548,-2.411 8.847,-3.112 13.337,-3.112 9.148,0 14.83,4.862 14.83,12.694 l 0,0.15 c 0,7.243 -6.416,9.877 -12.425,11.777 l -0.787,0.25 c -4.535,1.474 -8.447,2.746 -8.447,5.734 l 0,0.151 c 0,2.556 2.287,4.437 5.832,4.437 3.939,0 8.612,-1.311 11.62,-2.976 0,0 0.891,-0.57 1.212,0.288 0.177,0.466 1.698,4.562 1.862,5.008 0.17,0.478 -0.131,0.838 -0.446,1.028 -3.441,2.091 -8.185,3.52 -13.107,3.52 L 15.303,36.392 C 6.927,36.392 1.081,31.333 1.081,24.085 l 0,-0.151 c 0,-7.635 6.456,-10.119 12.492,-11.843 l 0.97,-0.301 c 4.404,-1.35 8.205,-2.517 8.205,-5.61 l 0,-0.158 c 0,-2.83 -2.471,-4.941 -6.449,-4.941 -1.547,0 -6.462,0.026 -11.784,3.388 C 3.873,4.85 3.493,5.105 3.008,5.42 2.844,5.524 2.071,5.826 1.809,5.007 L 0,0 Z"
             style="fill:#ffffff;fill-opacity:1;fill-rule:nonzero;stroke:none"
             id="path30"
             inkscape:connector-curvature="0" /></g><g
           id="g32"
           transform="translate(289.9068,165.6058)"><path
             d="m 0,0 c 0,-4.424 -0.826,-7.917 -2.451,-10.381 -1.612,-2.438 -4.044,-3.631 -7.432,-3.631 -3.395,0 -5.813,1.193 -7.399,3.631 -1.606,2.464 -2.418,5.957 -2.418,10.381 0,4.417 0.812,7.904 2.411,10.341 1.593,2.412 4.011,3.586 7.406,3.586 3.388,0 5.82,-1.174 7.432,-3.586 C -0.826,7.904 0,4.417 0,0 m 7.635,8.205 c -0.747,2.536 -1.92,4.771 -3.473,6.632 -1.554,1.868 -3.526,3.369 -5.866,4.457 -2.333,1.088 -5.086,1.645 -8.179,1.645 -3.1,0 -5.859,-0.557 -8.192,-1.645 -2.333,-1.088 -4.306,-2.589 -5.859,-4.463 -1.56,-1.862 -2.726,-4.097 -3.473,-6.626 -0.748,-2.523 -1.128,-5.282 -1.128,-8.205 0,-2.923 0.38,-5.689 1.128,-8.205 0.747,-2.53 1.913,-4.765 3.473,-6.633 1.553,-1.867 3.532,-3.362 5.866,-4.423 2.333,-1.062 5.085,-1.6 8.185,-1.6 3.093,0 5.839,0.538 8.179,1.6 2.333,1.061 4.306,2.556 5.866,4.423 1.553,1.861 2.726,4.096 3.473,6.633 0.747,2.523 1.127,5.282 1.127,8.205 0,2.923 -0.38,5.682 -1.127,8.205"
             style="fill:#ffffff;fill-opacity:1;fill-rule:nonzero;stroke:none"
             id="path34"
             inkscape:connector-curvature="0" /></g><g
           id="g36"
           transform="translate(360.2419,152.7812)"><path
             d="M 0,0 C -0.249,0.74 -0.977,0.458 -0.977,0.458 -2.084,0.032 -3.264,-0.354 -4.529,-0.551 -5.8,-0.754 -7.203,-0.852 -8.71,-0.852 c -3.69,0 -6.632,1.101 -8.736,3.27 -2.104,2.176 -3.29,5.689 -3.277,10.44 0.013,4.319 1.055,7.569 2.93,10.053 1.861,2.464 4.699,3.729 8.474,3.729 3.145,0 5.551,-0.367 8.067,-1.153 0,0 0.603,-0.262 0.885,0.524 0.675,1.862 1.166,3.179 1.881,5.217 0.203,0.583 -0.295,0.826 -0.479,0.898 -0.989,0.387 -3.322,1.022 -5.092,1.291 -1.645,0.249 -3.578,0.38 -5.728,0.38 -3.204,0 -6.062,-0.55 -8.506,-1.638 -2.445,-1.082 -4.509,-2.583 -6.154,-4.45 -1.639,-1.868 -2.884,-4.103 -3.71,-6.633 -0.832,-2.523 -1.245,-5.288 -1.245,-8.224 0,-6.331 1.704,-11.45 5.079,-15.192 3.382,-3.768 8.455,-5.675 15.074,-5.675 3.912,0 7.923,0.793 10.813,1.927 0,0 0.551,0.268 0.308,0.91 L 0,0 Z"
             style="fill:#ffffff;fill-opacity:1;fill-rule:evenodd;stroke:none"
             id="path38"
             inkscape:connector-curvature="0" /></g><g
           id="g40"
           transform="translate(373.6015,169.847)"><path
             d="M 0,0 C 0.367,2.458 1.042,4.502 2.091,6.095 3.67,8.513 6.082,9.85 9.477,9.85 c 3.394,0 5.629,-1.337 7.241,-3.755 1.069,-1.599 1.534,-3.723 1.717,-6.102 L 0,0 Z m 25.703,5.4 c -0.648,2.451 -2.254,4.922 -3.303,6.049 -1.664,1.796 -3.296,3.048 -4.908,3.742 -2.104,0.905 -4.634,1.501 -7.406,1.501 -3.224,0 -6.154,-0.544 -8.533,-1.658 C -0.826,13.92 -2.825,12.393 -4.398,10.492 -5.964,8.598 -7.144,6.344 -7.897,3.781 -8.651,1.238 -9.031,-1.534 -9.031,-4.463 c 0,-2.982 0.393,-5.761 1.173,-8.251 0.787,-2.523 2.045,-4.732 3.742,-6.574 1.704,-1.848 3.887,-3.289 6.502,-4.305 2.601,-1.003 5.76,-1.527 9.384,-1.514 7.465,0.02 11.397,1.684 13.016,2.582 0.288,0.164 0.557,0.439 0.223,1.238 l -1.698,4.732 c -0.255,0.702 -0.97,0.446 -0.97,0.446 -1.854,-0.688 -4.476,-1.92 -10.61,-1.907 -4.011,0.006 -6.98,1.186 -8.841,3.041 -1.907,1.887 -2.851,4.666 -3.008,8.591 l 25.841,-0.019 c 0,0 0.682,0.007 0.754,0.675 0.026,0.275 0.884,5.308 -0.774,11.128"
             style="fill:#ffffff;fill-opacity:1;fill-rule:evenodd;stroke:none"
             id="path42"
             inkscape:connector-curvature="0" /></g><g
           id="g44"
           transform="translate(166.6064,169.847)"><path
             d="m 0,0 c 0.367,2.458 1.042,4.502 2.084,6.095 1.593,2.418 3.998,3.755 7.393,3.755 3.394,0 5.636,-1.337 7.248,-3.755 1.062,-1.599 1.527,-3.723 1.71,-6.102 L 0,0 Z m 25.703,5.4 c -0.648,2.451 -2.254,4.922 -3.303,6.049 -1.664,1.796 -3.29,3.048 -4.908,3.742 -2.111,0.905 -4.634,1.501 -7.399,1.501 -3.231,0 -6.161,-0.544 -8.54,-1.658 C -0.826,13.92 -2.825,12.393 -4.398,10.492 -5.964,8.598 -7.144,6.344 -7.897,3.781 -8.651,1.238 -9.031,-1.534 -9.031,-4.463 c 0,-2.982 0.393,-5.761 1.173,-8.251 0.787,-2.523 2.045,-4.732 3.742,-6.574 1.704,-1.848 3.887,-3.289 6.502,-4.305 2.601,-1.003 5.76,-1.527 9.384,-1.514 7.465,0.02 11.397,1.684 13.016,2.582 0.288,0.164 0.557,0.439 0.223,1.238 l -1.698,4.732 c -0.255,0.702 -0.97,0.446 -0.97,0.446 -1.854,-0.688 -4.476,-1.92 -10.61,-1.907 -4.004,0.006 -6.98,1.186 -8.841,3.041 -1.907,1.887 -2.851,4.666 -3.008,8.591 l 25.841,-0.019 c 0,0 0.682,0.007 0.754,0.675 0.026,0.275 0.884,5.308 -0.774,11.128"
             style="fill:#ffffff;fill-opacity:1;fill-rule:evenodd;stroke:none"
             id="path46"
             inkscape:connector-curvature="0" /></g><g
           id="g48"
           transform="translate(110.7404,152.9225)"><path
             d="m 0,0 c -1.016,0.806 -1.153,1.009 -1.488,1.533 -0.517,0.793 -0.78,1.921 -0.78,3.362 0,2.268 0.754,3.906 2.307,5.001 -0.013,0 2.229,1.94 7.498,1.868 3.702,-0.046 7.019,-0.597 7.019,-0.597 l 0,-11.751 c 0,0 -3.284,-0.701 -6.98,-0.924 C 2.32,-1.829 -0.02,0.006 0,0 m 10.283,18.16 c -1.049,0.079 -2.406,0.118 -4.031,0.118 -2.215,0 -4.358,-0.275 -6.37,-0.819 -2.019,-0.544 -3.834,-1.383 -5.394,-2.497 -1.573,-1.127 -2.831,-2.563 -3.748,-4.267 -0.918,-1.704 -1.383,-3.709 -1.383,-5.95 0,-2.294 0.393,-4.28 1.186,-5.905 0.786,-1.632 1.92,-2.995 3.369,-4.044 1.435,-1.048 3.211,-1.815 5.262,-2.28 2.032,-0.466 4.332,-0.702 6.849,-0.702 2.654,0 5.289,0.223 7.851,0.656 2.536,0.432 5.643,1.061 6.508,1.264 0.858,0.197 1.809,0.459 1.809,0.459 0.642,0.164 0.589,0.846 0.589,0.846 l -0.013,23.632 c 0,5.191 -1.382,9.031 -4.102,11.416 -2.713,2.373 -6.711,3.572 -11.875,3.572 -1.94,0 -5.053,-0.262 -6.928,-0.636 0,0 -5.642,-1.094 -7.962,-2.916 0,0 -0.512,-0.314 -0.236,-1.029 l 1.828,-4.915 c 0.23,-0.636 0.852,-0.419 0.852,-0.419 0,0 0.197,0.078 0.426,0.216 4.968,2.7 11.259,2.621 11.259,2.621 2.792,0 4.942,-0.57 6.39,-1.671 1.409,-1.088 2.124,-2.713 2.124,-6.16 l 0,-1.095 c -2.216,0.322 -4.26,0.505 -4.26,0.505"
             style="fill:#ffffff;fill-opacity:1;fill-rule:nonzero;stroke:none"
             id="path50"
             inkscape:connector-curvature="0" /></g><g
           id="g52"
           transform="translate(329.4876,184.4007)"><path
             d="m 0,0 c 0.197,0.583 -0.216,0.865 -0.387,0.93 -0.439,0.164 -2.641,0.63 -4.332,0.741 -3.25,0.197 -5.053,-0.347 -6.665,-1.075 -1.605,-0.721 -3.381,-1.894 -4.365,-3.224 l -0.006,3.152 c 0,0.433 -0.308,0.78 -0.741,0.78 l -6.625,0 c -0.433,0 -0.741,-0.347 -0.741,-0.78 l 0,-38.555 c 0,-0.433 0.347,-0.78 0.787,-0.78 l 6.789,0 c 0.433,0 0.78,0.347 0.78,0.78 l 0,19.261 c 0,2.589 0.288,5.164 0.859,6.783 0.557,1.606 1.317,2.884 2.261,3.801 0.943,0.918 2.018,1.56 3.198,1.92 1.199,0.368 2.529,0.492 3.46,0.492 1.357,0 2.838,-0.354 2.838,-0.354 0.504,-0.052 0.78,0.256 0.95,0.702 C -1.501,-4.247 -0.236,-0.702 0,0"
             style="fill:#ffffff;fill-opacity:1;fill-rule:evenodd;stroke:none"
             id="path54"
             inkscape:connector-curvature="0" /></g><g
           id="g56"
           transform="translate(265.75,202.2681)"><path
             d="m 0,0 c -0.826,0.255 -1.573,0.426 -2.556,0.603 -0.996,0.183 -2.176,0.275 -3.513,0.275 -4.673,0 -8.356,-1.324 -10.944,-3.932 -2.569,-2.589 -4.319,-6.534 -5.197,-11.718 l -0.315,-1.75 -5.865,0 c 0,0 -0.721,0.026 -0.866,-0.754 l -0.963,-5.374 c -0.072,-0.511 0.151,-0.832 0.839,-0.832 l 5.715,0 -5.8,-32.349 c -0.452,-2.601 -0.97,-4.745 -1.547,-6.37 -0.564,-1.606 -1.121,-2.805 -1.802,-3.676 -0.662,-0.84 -1.285,-1.468 -2.366,-1.829 -0.891,-0.295 -1.92,-0.433 -3.041,-0.433 -0.623,0 -1.455,0.105 -2.071,0.23 -0.616,0.118 -0.937,0.255 -1.396,0.446 0,0 -0.668,0.255 -0.937,-0.414 -0.21,-0.55 -1.73,-4.738 -1.914,-5.256 -0.183,-0.511 0.072,-0.91 0.4,-1.028 0.76,-0.269 1.324,-0.446 2.359,-0.688 1.442,-0.341 2.655,-0.361 3.788,-0.361 2.379,0 4.549,0.334 6.344,0.983 1.809,0.656 3.382,1.796 4.778,3.329 1.501,1.665 2.451,3.408 3.355,5.787 0.898,2.353 1.659,5.276 2.275,8.684 l 5.819,32.945 8.513,0 c 0,0 0.721,-0.026 0.865,0.754 l 0.964,5.374 c 0.065,0.511 -0.151,0.832 -0.839,0.832 l -8.264,0 c 0.039,0.183 0.413,3.093 1.363,5.826 0.406,1.174 1.167,2.11 1.815,2.759 0.63,0.636 1.364,1.088 2.163,1.351 0.819,0.262 1.75,0.393 2.772,0.393 0.78,0 1.54,-0.092 2.124,-0.21 0.799,-0.171 1.114,-0.262 1.324,-0.321 0.838,-0.262 0.95,-0.013 1.12,0.393 l 1.973,5.427 C 0.675,-0.321 0.184,-0.072 0,0"
             style="fill:#ffffff;fill-opacity:1;fill-rule:evenodd;stroke:none"
             id="path58"
             inkscape:connector-curvature="0" /></g><g
           id="g60"
           transform="translate(150.2832,146.37)"><path
             d="m 0,0 c 0,-0.433 -0.308,-0.787 -0.741,-0.787 l -6.855,0 c -0.432,0 -0.74,0.354 -0.74,0.787 l 0,55.162 c 0,0.432 0.308,0.78 0.74,0.78 l 6.855,0 C -0.308,55.942 0,55.594 0,55.162 L 0,0 Z"
             style="fill:#ffffff;fill-opacity:1;fill-rule:evenodd;stroke:none"
             id="path62"
             inkscape:connector-curvature="0" /></g></g></g></g></svg>