<svg xmlns="http://www.w3.org/2000/svg" x="0px" y="0px"
     width="50" height="50"
     viewBox="0 0 172 172"
     style=" fill:#000000;"><g fill="none" fill-rule="nonzero" stroke="none" stroke-width="1" stroke-linecap="butt" stroke-linejoin="miter" stroke-miterlimit="10" stroke-dasharray="" stroke-dashoffset="0" font-family="none" font-weight="none" font-size="none" text-anchor="none" style="mix-blend-mode: normal"><path d="M0,172v-172h172v172z" fill="none"></path><path d="M0,172v-172h172v172zM168.56,168.56v-165.12h-165.12v165.12z" fill="#000000"></path><g id="original-icon" fill="#000000" opacity="0" visibility="hidden"><path d="M20.47619,30.96v110.08h5.2419v-52.41905h50.86286l-1.88381,-5.2419h-43.16381c0.50167,-2.67214 1.32071,-6.71619 2.86667,-12.44952c2.32405,-8.64095 5.91762,-19.04286 10.2381,-25.55429c2.16024,-3.25571 4.47405,-5.43643 6.55238,-6.22476c2.07833,-0.78833 4.02357,-0.60405 6.9619,1.6381c5.86643,4.48429 14.03643,18.17262 23.01524,46.03048c9.11191,28.24691 17.2,42.65191 25.55429,48.65143c4.17714,2.99976 8.77405,3.655 12.69524,2.29333c3.92119,-1.36167 7.10524,-4.36143 9.91048,-8.10857c5.60024,-7.49429 9.68524,-18.21357 12.53143,-27.11048c2.22167,-6.94143 3.33762,-11.6919 3.84952,-13.92381h5.81524v-5.2419h-60.52762l1.55619,5.2419h47.83238c-0.66548,2.74381 -1.74047,6.78786 -3.5219,12.36762c-2.76428,8.63071 -6.82881,18.94048 -11.71238,25.47238c-2.43667,3.26595 -5.04738,5.55929 -7.45333,6.38857c-2.40595,0.82929 -4.71976,0.62452 -7.86286,-1.6381c-6.28619,-4.515 -14.69167,-18.18286 -23.67048,-46.03048c-9.10167,-28.22643 -16.92357,-42.53929 -24.81714,-48.56952c-1.97595,-1.505 -4.09524,-2.48786 -6.14286,-2.86667c-2.04762,-0.37881 -4.04405,-0.215 -5.89714,0.49143c-3.69595,1.40262 -6.60357,4.515 -9.09143,8.27238c-4.98595,7.50452 -8.49762,18.1419 -10.89333,27.02857c-1.82238,6.78786 -2.75405,11.48714 -3.19429,13.8419h-0.40952v-52.41905z"></path></g><g id="subtracted-icon" fill="#000000"><path d="M25.7181,30.96v52.41905h0.40952c0.44024,-2.35476 1.37191,-7.05405 3.19429,-13.8419c2.39572,-8.88667 5.90738,-19.52405 10.89333,-27.02857c2.48786,-3.75738 5.39548,-6.86976 9.09143,-8.27238c1.85309,-0.70643 3.84952,-0.87024 5.89714,-0.49143c2.04762,0.37881 4.16691,1.36167 6.14286,2.86667c7.89357,6.03024 15.71548,20.3431 24.81714,48.56952c8.97881,27.84762 17.38429,41.51548 23.67048,46.03048c3.1431,2.26262 5.4569,2.46738 7.86286,1.6381c2.40595,-0.82929 5.01667,-3.12262 7.45333,-6.38857c4.88357,-6.5319 8.9481,-16.84167 11.71238,-25.47238c1.78143,-5.57976 2.85643,-9.62381 3.5219,-12.36762h-47.83238l-1.55619,-5.2419h60.52762v5.2419h-5.81524c-0.5119,2.23191 -1.62786,6.98238 -3.84952,13.92381c-2.84619,8.8969 -6.93119,19.61619 -12.53143,27.11048c-2.80524,3.74714 -5.98929,6.74691 -9.91048,8.10857c-3.92119,1.36167 -8.5181,0.70643 -12.69524,-2.29333c-8.35429,-5.99952 -16.44238,-20.40452 -25.55429,-48.65143c-8.97881,-27.85786 -17.14881,-41.54619 -23.01524,-46.03048c-2.93833,-2.24214 -4.88357,-2.42643 -6.9619,-1.6381c-2.07833,0.78833 -4.39214,2.96905 -6.55238,6.22476c-4.32047,6.51143 -7.91405,16.91333 -10.2381,25.55429c-1.54595,5.73333 -2.365,9.77738 -2.86667,12.44952h43.16381l1.88381,5.2419h-50.86286l0,11.61043c-1.8636,1.29398 -3.61679,2.73713 -5.2419,4.31178v-73.58317z"></path></g><path d="M0,172v-172h172v172z" fill="none"></path><path d="M3.44,168.56v-165.12h165.12v165.12z" fill="none"></path><g fill="#000000"><g id="Layer_9"><path d="M87,141.04v-14.448l-11.008,-1.72c-0.344,-1.032 -1.032,-2.408 -1.376,-3.44l6.192,-9.288l-9.976,-9.976l-8.944,6.536c-1.032,-0.688 -2.408,-1.032 -3.44,-1.376l-2.064,-11.008h-14.448l-1.72,11.008c-1.032,0.344 -2.408,1.032 -3.44,1.376l-9.288,-6.536l-10.32,10.32l6.192,8.6c-0.688,1.032 -1.032,2.408 -1.376,3.784l-10.664,1.72v14.448l10.664,1.72c0.344,1.032 1.032,2.408 1.376,3.44l-6.192,9.288l10.32,10.32l9.288,-6.192c1.376,0.688 2.408,1.032 3.784,1.376l1.376,11.008h14.448l1.72,-11.008c1.032,-0.344 2.408,-1.032 3.44,-1.376l9.288,6.192l10.32,-10.32l-6.536,-8.944c0.688,-1.032 1.032,-2.408 1.376,-3.44zM49.16,144.48c-5.848,0 -10.32,-4.472 -10.32,-10.32c0,-5.848 4.472,-10.32 10.32,-10.32c5.848,0 10.32,4.472 10.32,10.32c0,5.848 -4.472,10.32 -10.32,10.32z"></path></g><g opacity="0"><g id="IOS" font-family="-apple-system, BlinkMacSystemFont, &quot;San Francisco&quot;, HelveticaNeue-Light, &quot;Helvetica Neue Light&quot;, &quot;Helvetica Neue&quot;, &quot;Segoe UI&quot;, &quot;Fira Sans&quot;, Roboto, Oxygen, Ubuntu, &quot;Droid Sans&quot;, Arial, sans-serif" font-weight="400" font-size="16" text-anchor="start" visibility="hidden"></g><g id="IOS_copy"><path d="M49.16,92.88c-22.704,0 -41.28,18.576 -41.28,41.28c0,22.704 18.576,41.28 41.28,41.28c22.704,0 41.28,-18.576 41.28,-41.28c0,-22.704 -18.576,-41.28 -41.28,-41.28z"></path></g></g></g><g fill="#000000"><path d="M100.52,37.365v1.38h-4.32v5.65h-1.61v-12.8h6.66v1.39h-5.05v4.38zM107.71,44.395l-0.03,-0.83c-0.52,0.67333 -1.27333,1.01 -2.26,1.01v0c-0.86,0 -1.51,-0.3 -1.95,-0.9c-0.44,-0.59333 -0.66333,-1.45667 -0.67,-2.59v0v-6.2h1.55v6.08c0,1.48667 0.44333,2.23 1.33,2.23v0c0.94667,0 1.59667,-0.42333 1.95,-1.27v0v-7.04h1.56v9.51zM111.53,34.885h1.46l0.05,1.03c0.6,-0.80667 1.37,-1.21 2.31,-1.21v0c1.68,0 2.53333,1.12333 2.56,3.37v0v6.32h-1.55v-6.25c0,-0.74667 -0.12333,-1.27667 -0.37,-1.59c-0.25333,-0.31333 -0.62667,-0.47 -1.12,-0.47v0c-0.38667,0 -0.73667,0.13 -1.05,0.39c-0.30667,0.26 -0.55333,0.59667 -0.74,1.01v0v6.91h-1.55zM123.54,43.245v0c0.51333,0 0.92667,-0.16 1.24,-0.48c0.31333,-0.32 0.48333,-0.77667 0.51,-1.37v0h1.47c-0.03333,0.91333 -0.35667,1.67 -0.97,2.27c-0.61333,0.60667 -1.36333,0.91 -2.25,0.91v0c-1.18,0 -2.07667,-0.37333 -2.69,-1.12c-0.62,-0.74 -0.93,-1.84333 -0.93,-3.31v0v-1.04c0,-1.43333 0.30667,-2.52333 0.92,-3.27c0.62,-0.75333 1.51667,-1.13 2.69,-1.13v0c0.97333,0 1.74667,0.31 2.32,0.93c0.57333,0.61333 0.87667,1.45333 0.91,2.52v0h-1.47c-0.03333,-0.7 -0.20333,-1.22667 -0.51,-1.58c-0.3,-0.35333 -0.71667,-0.53 -1.25,-0.53v0c-0.68667,0 -1.2,0.22667 -1.54,0.68c-0.33333,0.45333 -0.50333,1.2 -0.51,2.24v0v1.21c0,1.12 0.16333,1.91 0.49,2.37c0.33333,0.46667 0.85667,0.7 1.57,0.7zM129.04,32.585h1.55v2.3h1.43v1.26h-1.43v5.89c0,0.38 0.06,0.66667 0.18,0.86c0.12667,0.19333 0.34,0.29 0.64,0.29v0c0.2,0 0.40667,-0.03667 0.62,-0.11v0l-0.02,1.32c-0.34667,0.12 -0.70667,0.18 -1.08,0.18v0c-0.61333,0 -1.08,-0.22 -1.4,-0.66c-0.32667,-0.44 -0.49,-1.06333 -0.49,-1.87v0v-5.9h-1.45v-1.26h1.45zM135.55,34.885v9.51h-1.56v-9.51zM135.67,32.365v0c0,0.26 -0.07333,0.48 -0.22,0.66c-0.14667,0.17333 -0.37,0.26 -0.67,0.26v0c-0.29333,0 -0.51333,-0.08667 -0.66,-0.26c-0.14667,-0.18 -0.22,-0.4 -0.22,-0.66c0,-0.26667 0.07333,-0.49 0.22,-0.67c0.14667,-0.18 0.36667,-0.27 0.66,-0.27c0.29333,0 0.51667,0.09 0.67,0.27c0.14667,0.18667 0.22,0.41 0.22,0.67zM137.67,40.235v-1.03c0,-1.38667 0.33333,-2.48333 1,-3.29c0.67333,-0.80667 1.56,-1.21 2.66,-1.21c1.1,0 1.98667,0.39333 2.66,1.18c0.67333,0.78667 1.01667,1.85667 1.03,3.21v0v1c0,1.38 -0.33333,2.47 -1,3.27c-0.66667,0.80667 -1.55667,1.21 -2.67,1.21v0c-1.1,0 -1.98333,-0.39 -2.65,-1.17c-0.66667,-0.78 -1.01,-1.83667 -1.03,-3.17zM139.22,39.195v0.9c0,0.98 0.19333,1.75 0.58,2.31c0.38,0.56 0.89667,0.84 1.55,0.84v0c1.36667,0 2.07333,-0.99 2.12,-2.97v0v-1.07c0,-0.97333 -0.19333,-1.74333 -0.58,-2.31c-0.38667,-0.56667 -0.90667,-0.85 -1.56,-0.85v0c-0.64,0 -1.15,0.28333 -1.53,0.85c-0.38667,0.56667 -0.58,1.33333 -0.58,2.3zM147.03,34.885h1.46l0.05,1.03c0.6,-0.80667 1.37,-1.21 2.31,-1.21v0c1.68,0 2.53333,1.12333 2.56,3.37v0v6.32h-1.55v-6.25c0,-0.74667 -0.12333,-1.27667 -0.37,-1.59c-0.25333,-0.31333 -0.62667,-0.47 -1.12,-0.47v0c-0.38667,0 -0.73667,0.13 -1.05,0.39c-0.30667,0.26 -0.55333,0.59667 -0.74,1.01v0v6.91h-1.55z"></path></g></g></svg>
