<?xml version="1.0" encoding="UTF-8"?>
<svg xmlns="http://www.w3.org/2000/svg" xmlns:xlink="http://www.w3.org/1999/xlink" width="64pt" height="64pt" viewBox="0 0 64 64" version="1.1">
<g id="surface1731459">
<path style=" stroke:none;fill-rule:nonzero;fill:rgb(100%,100%,100%);fill-opacity:1;" d="M 62 7 C 62 4.25 59.75 2 57 2 L 32 2 L 32 9.199219 C 32 10.351562 33.25 11.101562 34.25 10.5 C 35.351562 9.851562 36.648438 9.5 38 9.5 C 42.25 9.5 45.699219 13.050781 45.5 17.351562 C 45.300781 21.199219 42.148438 24.351562 38.300781 24.449219 C 36.800781 24.5 35.398438 24.148438 34.25 23.449219 C 33.25 22.851562 32 23.601562 32 24.75 L 32 32 L 24.800781 32 C 23.648438 32 22.898438 30.75 23.5 29.75 C 24.199219 28.550781 24.550781 27.148438 24.5 25.699219 C 24.351562 21.851562 21.199219 18.699219 17.398438 18.5 C 13.050781 18.300781 9.5 21.75 9.5 26 C 9.5 27.398438 9.851562 28.648438 10.5 29.75 C 11.101562 30.75 10.351562 32 9.199219 32 L 2 32 L 2 57 C 2 59.75 4.25 62 7 62 L 57 62 C 59.75 62 62 59.75 62 57 Z M 62 7 "/>
<path style=" stroke:none;fill-rule:nonzero;fill:rgb(44.313725%,76.078431%,100%);fill-opacity:1;" d="M 32 63.5 L 7 63.5 C 3.398438 63.5 0.5 60.601562 0.5 57 L 0.5 32 C 0.5 31.148438 1.148438 30.5 2 30.5 L 9.199219 30.5 C 8.398438 29.148438 8 27.601562 8 26 C 8 23.5 9 21.199219 10.800781 19.5 C 12.601562 17.800781 14.949219 16.898438 17.449219 17.050781 C 22.050781 17.25 25.800781 21.050781 26 25.699219 C 26.050781 27.398438 25.648438 29.101562 24.800781 30.601562 L 32 30.5 C 32.851562 30.5 33.5 31.148438 33.5 32 L 33.5 39.199219 C 33.5 40.300781 32.898438 41.300781 32 41.800781 C 31.050781 42.351562 29.949219 42.351562 29.050781 41.800781 C 28.050781 41.25 26.949219 40.949219 25.800781 41 C 22.699219 41.101562 20.199219 43.601562 20.050781 46.699219 C 19.949219 48.351562 20.550781 49.949219 21.699219 51.148438 C 22.851562 52.351562 24.398438 53 26.050781 53 C 27.101562 53 28.148438 52.699219 29.050781 52.199219 C 29.949219 51.648438 31.101562 51.648438 32 52.199219 C 32.949219 52.75 33.5 53.75 33.5 54.800781 L 33.5 62 C 33.5 62.851562 32.851562 63.5 32 63.5 Z M 3.5 33.5 L 3.5 57 C 3.5 58.949219 5.050781 60.5 7 60.5 L 30.5 60.5 L 30.5 54.800781 C 29.148438 55.601562 27.601562 56 26 56 C 23.5 56 21.199219 55 19.5 53.199219 C 17.800781 51.398438 16.898438 49.050781 17.050781 46.550781 C 17.25 41.949219 21.050781 38.199219 25.699219 38 C 27.398438 37.949219 29.101562 38.351562 30.601562 39.199219 L 30.5 33.5 L 24.800781 33.5 C 23.699219 33.5 22.699219 32.898438 22.199219 32 C 21.699219 31.101562 21.648438 29.949219 22.199219 29.050781 C 22.75 28.050781 23.050781 26.949219 23 25.800781 C 22.898438 22.699219 20.398438 20.199219 17.300781 20.050781 C 15.648438 19.949219 14.050781 20.550781 12.851562 21.699219 C 11.648438 22.800781 11 24.351562 11 26 C 11 27.050781 11.300781 28.101562 11.800781 29 C 12.351562 29.898438 12.351562 31.050781 11.800781 31.949219 C 11.25 32.851562 10.25 33.449219 9.199219 33.449219 L 3.5 33.449219 Z M 3.5 33.5 "/>
<path style=" stroke:none;fill-rule:nonzero;fill:rgb(26.666667%,29.411765%,32.941176%);fill-opacity:1;" d="M 57 0.5 L 32 0.5 C 31.148438 0.5 30.5 1.148438 30.5 2 L 30.5 9.199219 C 30.5 10.300781 31.101562 11.300781 32 11.800781 C 32.949219 12.351562 34.050781 12.351562 34.949219 11.800781 C 35.851562 11.25 36.898438 11 37.949219 11 C 39.601562 11 41.148438 11.648438 42.300781 12.851562 C 43.449219 14.050781 44.050781 15.601562 43.949219 17.300781 C 43.800781 20.398438 41.25 22.898438 38.199219 23 C 37.050781 23.050781 35.949219 22.75 34.949219 22.199219 C 34.050781 21.648438 32.898438 21.648438 32 22.199219 C 31.050781 22.75 30.5 23.75 30.5 24.800781 L 30.5 27 C 30.5 27.851562 31.148438 28.5 32 28.5 C 32.851562 28.5 33.5 27.851562 33.5 27 L 33.449219 24.75 C 34.898438 25.601562 36.601562 26.050781 38.351562 25.949219 C 42.949219 25.75 46.75 22 47 17.398438 C 47.101562 14.898438 46.25 12.550781 44.550781 10.75 C 42.800781 9 40.5 8 38 8 C 36.398438 8 34.851562 8.398438 33.5 9.199219 L 33.5 3.5 L 57 3.5 C 58.949219 3.5 60.5 5.050781 60.5 7 L 60.5 30.5 L 54.800781 30.5 C 53.699219 30.5 52.699219 31.101562 52.199219 32 C 51.648438 32.949219 51.648438 34.050781 52.199219 34.949219 C 52.75 35.851562 53 36.898438 53 37.949219 C 53 39.601562 52.351562 41.148438 51.148438 42.300781 C 49.949219 43.449219 48.351562 44.050781 46.699219 43.949219 C 43.601562 43.800781 41.101562 41.25 41 38.199219 C 40.949219 37.050781 41.25 35.949219 41.800781 34.949219 C 42.351562 34.050781 42.351562 32.898438 41.800781 32 C 41.25 31.050781 40.25 30.5 39.199219 30.5 L 37 30.5 C 36.148438 30.5 35.5 31.148438 35.5 32 C 35.5 32.851562 36.148438 33.5 37 33.5 L 39.25 33.449219 C 38.398438 34.949219 37.949219 36.601562 38.050781 38.351562 C 38.25 42.949219 42 46.75 46.601562 47 C 49.101562 47.101562 51.449219 46.25 53.25 44.550781 C 55.050781 42.851562 56.050781 40.5 56.050781 38.050781 C 56.050781 36.449219 55.648438 34.898438 54.851562 33.550781 L 60.5 33.550781 L 60.5 57.050781 C 60.5 59 58.949219 60.550781 57 60.550781 L 37 60.550781 C 36.148438 60.550781 35.5 61.199219 35.5 62.050781 C 35.5 62.898438 36.148438 63.550781 37 63.550781 L 57 63.550781 C 60.601562 63.550781 63.5 60.648438 63.5 57.050781 L 63.5 7 C 63.5 3.398438 60.601562 0.5 57 0.5 Z M 57 0.5 "/>
<path style=" stroke:none;fill-rule:nonzero;fill:rgb(0%,0%,0%);fill-opacity:1;" d="M 36.910156 25.652344 L 36.910156 27.027344 L 32.828125 27.027344 L 32.828125 38.347656 L 31.160156 38.347656 L 31.160156 27.027344 L 27.089844 27.027344 L 27.089844 25.652344 Z M 36.910156 25.652344 "/>
</g>
</svg>
